<svg width="25" height="29" viewBox="0 0 25 29" fill="none" xmlns="http://www.w3.org/2000/svg">
<path d="M12.3158 0.315796C6.48571 0.315796 1.75945 5.04205 1.75945 10.8722V17.181L0.515364 18.4251C0.0121758 18.9283 -0.138341 19.685 0.133979 20.3425C0.406299 21 1.04785 21.4286 1.75945 21.4286H22.8722C23.5839 21.4286 24.2253 21 24.4977 20.3425C24.7701 19.685 24.6195 18.9283 24.1163 18.4251L22.8722 17.181V10.8722C22.8722 5.04205 18.1459 0.315796 12.3158 0.315796Z" fill="#67748E"/>
<path d="M12.3163 28.4662C9.40122 28.4662 7.03809 26.1031 7.03809 23.188H17.5945C17.5945 26.1031 15.2314 28.4662 12.3163 28.4662Z" fill="#67748E"/>
</svg>
