<svg width="15" height="15" viewBox="0 0 15 15" fill="none" xmlns="http://www.w3.org/2000/svg">
<path d="M15 0V15H1.07143V13.1396H0V12.2021H1.07143V10.3198H0V9.38232H1.07143V5.63232H0V4.69482H1.07143V2.81982H0V1.88232H1.07143V0H15ZM13.9286 0.9375H2.14286V14.0625H13.9286V0.9375ZM12.8571 3.75H7.5V2.8125H12.8571V3.75ZM12.8571 5.625H7.5V4.6875H12.8571V5.625ZM4.82143 12.1582C4.60379 12.1582 4.40011 12.124 4.21038 12.0557C4.02065 11.9873 3.85324 11.8896 3.70815 11.7627C3.56306 11.6357 3.45145 11.4893 3.37333 11.3232C3.2952 11.1572 3.25335 10.9766 3.24777 10.7813C3.24777 10.5908 3.28683 10.4126 3.36496 10.2466C3.44308 10.0806 3.55469 9.93652 3.69978 9.81445C3.84487 9.69238 4.01228 9.59229 4.20201 9.51416C4.39174 9.43604 4.59821 9.39941 4.82143 9.4043C5.03906 9.4043 5.24275 9.44092 5.43248 9.51416C5.62221 9.5874 5.78683 9.68506 5.92634 9.80713C6.06585 9.9292 6.18025 10.0757 6.26953 10.2466C6.35882 10.4175 6.40067 10.5957 6.39509 10.7813C6.39509 10.9717 6.35324 11.1499 6.26953 11.3159C6.18583 11.4819 6.07422 11.6284 5.93471 11.7554C5.7952 11.8823 5.62779 11.98 5.43248 12.0483C5.23717 12.1167 5.03348 12.1533 4.82143 12.1582ZM4.82143 10.2832C4.6596 10.2832 4.52567 10.3296 4.41964 10.4224C4.31362 10.5151 4.25781 10.6348 4.25223 10.7813C4.25223 10.9229 4.30525 11.04 4.41127 11.1328C4.5173 11.2256 4.65402 11.2744 4.82143 11.2793C4.98326 11.2793 5.11719 11.2329 5.22321 11.1401C5.32924 11.0474 5.38504 10.9277 5.39062 10.7813C5.39062 10.6396 5.33761 10.5225 5.23159 10.4297C5.12556 10.3369 4.98884 10.2881 4.82143 10.2832ZM4.82143 5.5957C4.60379 5.5957 4.40011 5.56152 4.21038 5.49316C4.02065 5.4248 3.85324 5.32715 3.70815 5.2002C3.56306 5.07324 3.45145 4.92676 3.37333 4.76074C3.2952 4.59473 3.25335 4.41406 3.24777 4.21875C3.24777 4.02832 3.28683 3.8501 3.36496 3.68408C3.44308 3.51807 3.55469 3.37402 3.69978 3.25195C3.84487 3.12988 4.01228 3.02979 4.20201 2.95166C4.39174 2.87354 4.59821 2.83691 4.82143 2.8418C5.03906 2.8418 5.24275 2.87842 5.43248 2.95166C5.62221 3.0249 5.78683 3.12256 5.92634 3.24463C6.06585 3.3667 6.18025 3.51318 6.26953 3.68408C6.35882 3.85498 6.40067 4.0332 6.39509 4.21875C6.39509 4.40918 6.35324 4.5874 6.26953 4.75342C6.18583 4.91943 6.07422 5.06592 5.93471 5.19287C5.7952 5.31982 5.62779 5.41748 5.43248 5.48584C5.23717 5.5542 5.03348 5.59082 4.82143 5.5957ZM4.82143 3.7207C4.6596 3.7207 4.52567 3.76709 4.41964 3.85986C4.31362 3.95264 4.25781 4.07227 4.25223 4.21875C4.25223 4.36035 4.30525 4.47754 4.41127 4.57031C4.5173 4.66309 4.65402 4.71191 4.82143 4.7168C4.98326 4.7168 5.11719 4.67041 5.22321 4.57764C5.32924 4.48486 5.38504 4.36523 5.39062 4.21875C5.39062 4.07715 5.33761 3.95996 5.23159 3.86719C5.12556 3.77441 4.98884 3.72559 4.82143 3.7207ZM12.8571 10.3125H7.5V9.375H12.8571V10.3125ZM12.8571 12.1875H7.5V11.25H12.8571V12.1875Z" fill="white"/>
</svg>
