<svg width="158" height="88" viewBox="0 0 158 88" fill="none" xmlns="http://www.w3.org/2000/svg">
<g filter="url(#filter0_d_846_1342)">
<path d="M40.2239 27.2129C40.1304 27.549 40.0794 27.7381 40.0241 27.9314C39.8571 28.7099 39.4615 29.4225 38.8867 29.98C38.312 30.5375 37.5836 30.9152 36.7927 31.0656C36.2824 31.1791 36.1634 31.0656 36.2399 30.5825C36.3037 30.1623 36.4313 29.7422 36.461 29.3473C36.5242 28.822 36.5171 28.2909 36.4398 27.7675C36.2314 26.7802 35.9338 25.8138 35.6489 24.8265C35.5422 24.5376 35.4143 24.2568 35.2662 23.9862C34.3436 24.3181 33.472 24.6836 32.5706 24.9399C31.9087 25.1285 31.2264 25.2385 30.5382 25.2676C28.6935 25.294 26.8684 24.891 25.2106 24.0912C25.7293 22.9947 26.9113 22.8896 27.7277 22.2426C27.7064 21.9737 27.6979 21.6754 27.2685 21.6796C25.4869 21.6796 23.6842 21.4149 21.9324 21.9023C21.2168 22.1438 20.5192 22.4344 19.8447 22.772C19.7909 22.7886 19.7425 22.8191 19.7044 22.8602C18.7775 24.1417 17.5785 25.2803 17.5487 27.0196C17.5487 27.7675 17.4211 28.5742 17.6678 29.238C17.8804 29.822 18.5181 30.2758 18.9901 30.7421C20.3167 32.0026 21.9962 31.7631 23.5779 31.6118C24.4282 31.5278 25.2786 31.0656 26.0822 30.7421C26.7455 30.4816 27.3918 30.1875 28.0381 29.9018C28.8248 29.4665 29.7363 29.3038 30.6275 29.4397C30.9889 29.539 31.3007 29.7663 31.5033 30.0783C31.7287 30.4354 31.5033 30.7883 31.1972 31.1034C30.67 31.6664 30.1895 32.2715 29.6835 32.8555C28.7141 33.9688 27.7574 35.0948 26.7583 36.183C26.3515 36.6017 25.9043 36.9802 25.4232 37.3132C24.9172 37.6871 24.947 38.019 25.2063 38.5736C25.7293 39.6996 26.4819 40.8172 25.6655 42.1616C25.3892 42.6238 25.4232 43.2582 25.2659 43.796C25.1522 44.2038 24.9909 44.5972 24.7854 44.9682C24.2598 45.8592 23.999 46.8785 24.0328 47.9092C24.0154 48.074 23.9694 48.2346 23.8967 48.384C22.7105 46.569 21.5922 44.7749 20.3762 43.0523C19.7105 42.2058 19.0009 41.3938 18.2503 40.6197C17.9101 40.2332 17.5955 39.8214 17.2681 39.4223C16.8727 38.9391 16.4177 38.4854 16.0903 37.9686C14.7637 35.9645 12.8631 34.3512 11.9958 32.0404C11.8684 31.7334 11.7088 31.4405 11.5196 31.1665C10.8222 30.0825 10.6139 28.8389 10.244 27.6331C9.82849 26.1045 9.66341 24.5202 9.75503 22.9401C9.80906 20.8191 10.3684 18.7405 11.3877 16.8732C12.4532 14.8446 13.9277 13.053 15.7204 11.6088C17.1906 10.4959 18.7409 9.49045 20.3592 8.60054C20.9859 8.28044 21.6583 8.05659 22.3533 7.93671C22.8891 7.81486 23.3908 7.62581 23.9052 7.46195C25.2333 7.0544 26.5907 6.74681 27.9658 6.54184C29.001 6.41562 30.0438 6.36086 31.0867 6.37797C31.5119 6.37797 31.7542 6.25193 31.8307 5.78557C31.9668 4.97049 32.1709 4.16802 32.341 3.36134C32.4701 2.51634 32.3336 1.65252 31.9498 0.88669C31.887 0.599573 31.8755 0.303829 31.9158 0.0127962C32.1714 -0.0127475 32.4294 -9.17183e-07 32.6811 0.0506076C35.5129 1.05475 37.3582 3.01263 38.3956 5.78138C38.7883 6.80941 39.2676 7.80303 39.8285 8.75179C40.1161 9.17696 40.5101 9.52142 40.9723 9.75173C45.6918 12.3272 48.4003 16.2892 49.5951 21.4401C50.0458 23.3896 50.1776 25.3517 50.4454 27.3222C50.5072 27.7939 50.6511 28.2516 50.8706 28.675C51.5326 29.9114 51.9837 31.2471 52.2057 32.6286C52.2248 32.8672 52.2778 33.102 52.363 33.326C52.8647 34.3638 52.4651 35.2587 51.9378 36.1284C51.5126 36.7922 50.9727 36.9687 50.3306 36.4855C49.6347 36.0255 49.0102 35.4679 48.4768 34.8301C47.1686 33.1009 45.6619 31.5275 43.9868 30.1413C43.1577 29.4481 42.3584 28.7212 41.5165 28.0406C41.1003 27.743 40.6689 27.4667 40.2239 27.2129Z" fill="url(#paint0_linear_846_1342)"/>
<path d="M16.3839 52.8039C16.4774 52.4678 16.5284 52.2788 16.5794 52.0855C16.7472 51.3066 17.1436 50.5939 17.7191 50.0364C18.2946 49.4789 19.0237 49.1015 19.8151 48.9512C20.3253 48.8378 20.4401 48.9512 20.3636 49.4344C20.3041 49.8545 20.1723 50.2537 20.1468 50.6696C20.0744 51.1938 20.0744 51.7252 20.1468 52.2493C20.3508 53.2367 20.6527 54.203 20.9334 55.1904C21.0418 55.4792 21.1711 55.7601 21.3203 56.0306C22.2429 55.6987 23.1146 55.3332 24.016 55.0769C24.6778 54.888 25.3601 54.7779 26.0484 54.7492C27.8926 54.7327 29.7149 55.1458 31.3674 55.955C30.8487 57.0516 29.6667 57.1566 28.8503 57.8036C28.8758 58.0683 28.8801 58.3667 29.3095 58.3667C31.0953 58.3667 32.8939 58.6271 34.6456 58.144C35.3626 57.9025 36.0616 57.6119 36.7376 57.2743C36.7914 57.2576 36.8398 57.2272 36.8779 57.186C37.8048 55.9046 39.0038 54.766 39.0293 53.0266C39.0293 52.2788 39.1569 51.4721 38.9145 50.8083C38.7019 50.2243 38.0641 49.7705 37.5922 49.3041C36.2613 48.0437 34.5861 48.2832 33.0002 48.4344C32.1498 48.5185 31.3249 48.9806 30.5001 49.3041C29.8368 49.5604 29.1905 49.8587 28.5442 50.1444C27.7575 50.5798 26.846 50.7424 25.9548 50.6066C25.593 50.508 25.281 50.2805 25.0789 49.968C24.8536 49.6066 25.0789 49.2537 25.3851 48.9428C25.9123 48.3798 26.3928 47.7748 26.8987 47.1908C27.8682 46.0774 28.8248 44.9472 29.824 43.8633C30.2283 43.4436 30.6742 43.065 31.1548 42.7331C31.6608 42.3592 31.6353 42.0272 31.376 41.4727C30.853 40.3467 30.1004 39.2291 30.9167 37.8846C31.1889 37.4225 31.1591 36.7881 31.3122 36.2503C31.424 35.8338 31.5852 35.4319 31.7926 35.0529C32.321 34.1628 32.5834 33.1431 32.5495 32.1118C32.5676 31.9477 32.6121 31.7874 32.6813 31.6371C33.8718 33.4521 34.9858 35.2461 36.2061 36.9687C36.8729 37.8144 37.5825 38.6263 38.332 39.4013C38.6764 39.7879 38.991 40.1996 39.3184 40.5988C39.7139 41.0819 40.1688 41.5357 40.4962 42.0525C41.8185 44.0565 43.7234 45.6699 44.5865 47.9807C44.7154 48.2878 44.8764 48.5806 45.067 48.8546C45.7643 49.9386 45.9726 51.1822 46.3425 52.388C46.7582 53.9165 46.9233 55.5009 46.8315 57.081C46.777 59.2019 46.2176 61.2804 45.1988 63.1479C44.1333 65.1765 42.6588 66.9681 40.8661 68.4123C39.4071 69.5158 37.8697 70.5141 36.2656 71.3995C35.6394 71.7209 34.9668 71.9448 34.2715 72.0633C33.74 72.1852 33.234 72.3742 32.7238 72.5381C31.3956 72.9452 30.0382 73.2528 28.6633 73.4582C27.6267 73.5845 26.5824 73.6393 25.5381 73.6221C25.1129 73.6221 24.8706 73.7481 24.7941 74.2145C24.6622 75.0295 24.4582 75.832 24.2838 76.6387C24.1579 77.4841 24.2958 78.3474 24.6793 79.1134C24.7401 79.4007 24.7516 79.6961 24.7133 79.9872C24.4577 80.0128 24.1997 80.0001 23.9479 79.9494C21.1162 78.9453 19.2709 77.0084 18.2334 74.2187C17.839 73.1914 17.3598 72.1979 16.8005 71.2483C16.5126 70.8218 16.1169 70.4771 15.6525 70.2483C10.9244 67.656 8.20325 63.7109 7.02123 58.5599C6.56628 56.6104 6.43448 54.6484 6.17086 52.6779C6.10011 52.2034 5.94768 51.7445 5.72016 51.3208C5.05891 50.086 4.60921 48.7515 4.38932 47.3715C4.37021 47.1329 4.31726 46.8981 4.23201 46.674C3.72603 45.6363 4.12996 44.7414 4.65719 43.8717C5.08238 43.2079 5.62237 43.0524 6.2644 43.5146C6.95815 43.9757 7.58107 44.5333 8.11396 45.1699C9.42334 46.8981 10.9299 48.4715 12.6039 49.8587C13.4543 50.552 14.2367 51.2788 15.0785 51.9595C15.4985 52.2632 15.9342 52.5451 16.3839 52.8039Z" fill="url(#paint1_linear_846_1342)"/>
<path d="M72.3096 48.9727C73.0282 46.2879 73.717 43.7082 74.4143 41.1286C74.6013 40.4353 74.8139 39.7463 75.0223 39.0573C75.0913 38.7768 75.2556 38.5283 75.4878 38.3532C75.7199 38.178 76.0059 38.087 76.2978 38.0951C77.0589 38.0657 77.82 38.0447 78.5768 38.0951C79.6653 38.1582 80.167 38.6875 80.1883 39.7757C80.2096 41.0109 80.1883 42.2504 80.1883 43.4856C80.1883 46.477 80.1883 49.4656 80.1883 52.4514C80.1885 52.7458 80.1629 53.0396 80.1118 53.3296C80.0509 53.6774 79.8658 53.9922 79.59 54.2166C79.3142 54.4411 78.9661 54.5603 78.6089 54.5527C78.2517 54.5451 77.9092 54.4111 77.6435 54.1751C77.3778 53.939 77.2066 53.6167 77.161 53.2665C77.1163 52.9887 77.0949 52.7076 77.0972 52.4262C77.0972 49.1407 77.0972 45.8566 77.0972 42.5739V42.0949H77.0079C76.9356 42.3512 76.8633 42.6033 76.7953 42.8596C75.9109 46.2711 75.035 49.6827 74.1422 53.0943C74.0777 53.4839 73.8817 53.8405 73.586 54.106C73.2903 54.3715 72.9123 54.5302 72.5137 54.5564C71.4507 54.611 70.7832 54.2623 70.4685 53.2959C70.0433 51.9851 69.7287 50.6406 69.38 49.3046C68.7791 46.9686 68.1839 44.6326 67.5943 42.2966C67.5667 42.181 67.5079 42.075 67.4242 41.9899V42.4562C67.4242 45.8006 67.4242 49.1435 67.4242 52.4851C67.4299 52.7206 67.4228 52.9562 67.4029 53.1909C67.3683 53.5623 67.1946 53.9075 66.9157 54.1588C66.6369 54.4101 66.2731 54.5494 65.8956 54.5494C65.5182 54.5494 65.1544 54.4101 64.8756 54.1588C64.5967 53.9075 64.423 53.5623 64.3884 53.1909C64.3707 53.001 64.3636 52.8102 64.3671 52.6195C64.3671 48.4181 64.3671 44.2166 64.3671 40.0152C64.3671 39.9144 64.3671 39.8093 64.3671 39.7085C64.4011 38.7589 64.8263 38.2296 65.783 38.1455C66.6437 38.0888 67.5073 38.0888 68.3681 38.1455C68.6486 38.1509 68.9189 38.2509 69.1339 38.429C69.3489 38.6071 69.4958 38.8525 69.5501 39.1245C70.0306 40.8471 70.5153 42.5739 70.9873 44.3048C71.3784 45.7501 71.7611 47.1996 72.1523 48.6449C72.199 48.6954 72.2373 48.7794 72.3096 48.9727Z" fill="#70E8FF"/>
<path d="M104.892 43.3973V49.5356C104.892 50.5692 104.892 51.5985 104.892 52.6279C104.887 52.9364 104.841 53.243 104.755 53.5396C104.659 53.8528 104.455 54.1228 104.179 54.3031C103.902 54.4834 103.571 54.5626 103.242 54.5269C102.934 54.5273 102.635 54.4275 102.391 54.243C102.146 54.0584 101.97 53.7994 101.89 53.506C101.816 53.2662 101.777 53.0172 101.775 52.7665C101.775 48.4811 101.775 44.1956 101.775 39.9143C101.775 38.6539 102.421 37.9145 103.527 37.7884C103.892 37.7409 104.264 37.8022 104.594 37.9647C104.925 38.1271 105.198 38.3831 105.38 38.7001C106.035 39.6622 106.656 40.637 107.319 41.6075L112.039 48.6701C112.131 48.8287 112.261 48.9628 112.417 49.0609V48.5987C112.417 45.6955 112.417 42.7965 112.417 39.8933C112.414 39.5561 112.446 39.2195 112.515 38.8892C112.59 38.5773 112.767 38.2986 113.019 38.0958C113.27 37.8931 113.582 37.7775 113.906 37.767C114.23 37.7565 114.549 37.8516 114.813 38.0377C115.077 38.2237 115.272 38.4904 115.368 38.7967C115.455 39.1232 115.499 39.4592 115.5 39.7967C115.5 43.9645 115.5 48.1309 115.5 52.296C115.498 52.487 115.485 52.6777 115.462 52.8674C115.446 53.2044 115.336 53.5305 115.142 53.8087C114.949 54.087 114.681 54.3064 114.369 54.4423C114.056 54.5782 113.712 54.625 113.374 54.5776C113.035 54.5302 112.718 54.3904 112.456 54.174C112.012 53.8298 111.632 53.4118 111.333 52.9388C109.288 49.8844 107.273 46.8173 105.244 43.7544L104.972 43.3679L104.892 43.3973Z" fill="#70E8FF"/>
<path d="M90.8263 37.7632C92.3382 37.7292 93.8333 38.0808 95.1675 38.7842C96.0033 39.2467 96.7328 39.8758 97.3095 40.6316C97.8863 41.3874 98.2978 42.2534 98.518 43.1747C99.0717 45.1754 99.0526 47.2888 98.4627 49.2794C98.0712 50.7457 97.2096 52.0472 96.0071 52.9894C94.8045 53.9315 93.3256 54.4636 91.7915 54.506C90.3191 54.637 88.8357 54.4403 87.4504 53.9304C86.5276 53.5841 85.6935 53.0408 85.0078 52.3392C84.3221 51.6376 83.8015 50.7951 83.4834 49.8718C82.5667 47.492 82.5561 44.8642 83.4536 42.4772C84.5251 39.5993 86.7275 38.1329 89.7676 37.822C90.1205 37.7884 90.4777 37.7842 90.8263 37.7632ZM95.5034 46.3846C95.5636 45.1773 95.3364 43.9728 94.8401 42.868C94.5167 42.1406 93.9866 41.5216 93.3141 41.086C92.6417 40.6505 91.8557 40.4172 91.0517 40.4143C89.3254 40.3387 87.8798 40.9647 87.0762 42.5151C86.4549 43.6234 86.1289 44.8697 86.1289 46.1367C86.1289 47.4037 86.4549 48.65 87.0762 49.7583C88.6196 52.6027 92.7822 52.6531 94.5297 49.9264C95.1792 48.8574 95.5163 47.6314 95.5034 46.3846Z" fill="#70E8FF"/>
<path d="M129.638 40.6076V44.5401H130.135C132.163 44.5401 134.187 44.5401 136.215 44.5401C136.482 44.5365 136.748 44.5605 137.01 44.6116C137.304 44.6464 137.572 44.7943 137.756 45.0233C137.94 45.2522 138.025 45.5436 137.992 45.8342C138.002 46.1248 137.899 46.408 137.703 46.6254C137.508 46.8427 137.235 46.9776 136.942 47.0022C136.707 47.038 136.47 47.0548 136.232 47.0526H129.642V51.6028H136.959C137.257 51.6022 137.555 51.6289 137.848 51.6826C138.148 51.7188 138.423 51.8633 138.622 52.0882C138.82 52.3131 138.928 52.6026 138.924 52.901C138.944 53.1981 138.854 53.4924 138.671 53.729C138.488 53.9655 138.224 54.1282 137.929 54.1867C137.725 54.2295 137.516 54.2492 137.308 54.2455H128.192C126.887 54.2455 126.274 53.6447 126.27 52.3464C126.27 48.2066 126.27 44.0682 126.27 39.9312C126.27 38.6707 126.827 38.0783 128.081 38.0615C131.134 38.0335 134.188 38.0335 137.244 38.0615C138.269 38.0615 138.813 38.7338 138.613 39.6245C138.569 39.8576 138.452 40.0709 138.278 40.234C138.104 40.397 137.882 40.5013 137.644 40.532C137.363 40.5819 137.078 40.6045 136.793 40.5992H129.638V40.6076Z" fill="#70E8FF"/>
<path d="M147.428 37.738C148.732 37.7149 150.02 38.0231 151.169 38.6329C151.667 38.8871 152.106 39.2405 152.459 39.6708C152.812 40.101 153.07 40.5988 153.219 41.1328C153.461 42.1033 153.032 42.9772 152.211 43.2335C151.943 43.3286 151.65 43.3323 151.38 43.244C151.109 43.1557 150.876 42.9804 150.719 42.7462C150.489 42.4226 150.293 42.0655 150.102 41.721C149.836 41.3076 149.485 40.9544 149.072 40.6844C148.659 40.4144 148.192 40.2338 147.703 40.1545C147.214 40.0752 146.714 40.0988 146.235 40.224C145.756 40.3491 145.309 40.573 144.923 40.8807C144.747 41.0128 144.604 41.1833 144.506 41.379C144.407 41.5747 144.356 41.7903 144.356 42.0088C144.356 42.2273 144.407 42.4429 144.506 42.6386C144.604 42.8343 144.747 43.0048 144.923 43.1369C145.434 43.4839 145.999 43.7478 146.594 43.9184C147.84 44.3091 149.111 44.62 150.366 44.9813C150.706 45.09 151.039 45.222 151.361 45.3763C154.282 46.6367 154.388 49.5777 153.538 51.4641C153.276 52.0483 152.896 52.5733 152.422 53.0068C151.947 53.4404 151.388 53.7733 150.778 53.985C148.719 54.7907 146.431 54.8176 144.353 54.0606C143.463 53.7867 142.669 53.2672 142.067 52.5632C141.464 51.8591 141.077 50.9997 140.952 50.0861C140.879 49.7428 140.934 49.3848 141.109 49.0793C141.283 48.7738 141.565 48.5416 141.9 48.4265C142.238 48.296 142.614 48.2992 142.95 48.4353C143.285 48.5715 143.555 48.8301 143.703 49.1576C143.894 49.4895 144.026 49.8508 144.192 50.1953C145.195 52.296 148.308 52.8464 150.021 51.2415C150.259 51.0423 150.444 50.7889 150.561 50.5033C150.677 50.2177 150.722 49.9084 150.69 49.602C150.659 49.2956 150.552 49.0013 150.38 48.7446C150.208 48.4878 149.976 48.2763 149.702 48.1282C148.854 47.7474 147.973 47.4409 147.07 47.2123C145.867 46.8903 144.687 46.4903 143.537 46.0149C140.667 44.6242 140.807 41.3933 142.113 39.7841C143 38.7716 144.237 38.1203 145.582 37.9565C146.212 37.8221 146.824 37.7968 147.428 37.738Z" fill="#70E8FF"/>
<path d="M122.592 46.1199C122.592 48.1646 122.592 50.2107 122.592 52.2582C122.599 52.4939 122.589 52.7298 122.562 52.964C122.405 54.0732 121.772 54.5942 120.687 54.5228C119.837 54.4639 119.242 53.6825 119.242 52.6951C119.242 48.4713 119.242 44.2516 119.242 40.0362C119.237 39.7124 119.263 39.389 119.318 39.0699C119.392 38.7054 119.592 38.3775 119.883 38.1419C120.174 37.9063 120.539 37.7776 120.915 37.7776C121.291 37.7776 121.656 37.9063 121.947 38.1419C122.238 38.3775 122.437 38.7054 122.511 39.0699C122.57 39.3873 122.598 39.7094 122.596 40.032C122.596 42.0571 122.592 44.0906 122.592 46.1199Z" fill="#70E8FF"/>
<path d="M82.9648 23.4699V17.298C82.9648 16.1342 83.5346 15.4704 84.7124 15.462C86.8383 15.462 88.9642 15.4157 91.0902 15.5586C93.7136 15.7351 95.4271 17.2686 96.32 19.6298C97.2874 22.1499 97.2874 24.9328 96.32 27.4529C95.3123 30.1544 93.2288 31.5157 90.3376 31.6123C88.4753 31.6753 86.613 31.6459 84.7506 31.6123C83.5984 31.6123 83.0286 31.0913 83.0031 29.9317C82.9563 27.7722 83.0031 25.6084 83.0031 23.4447L82.9648 23.4699ZM86.3366 17.9576V28.9906H89.5255C91.3198 28.9906 92.5018 28.2175 93.1013 26.5496C93.7858 24.6317 93.8157 22.545 93.1863 20.6087C92.7909 19.3483 91.9108 18.4324 90.5459 18.2601C89.1811 18.0879 87.7695 18.0543 86.3366 17.9576Z" fill="#70E8FF"/>
<path d="M126.117 17.9913V21.9196H132.725C132.991 21.9182 133.258 21.9421 133.52 21.991C133.813 22.0269 134.08 22.1751 134.264 22.4038C134.448 22.6325 134.533 22.9233 134.502 23.2137C134.513 23.505 134.41 23.7892 134.214 24.0075C134.019 24.2257 133.746 24.3612 133.452 24.3859C133.202 24.4196 132.951 24.4364 132.699 24.4363H126.16V28.9907H133.477C133.762 28.993 134.046 29.0169 134.328 29.0621C134.652 29.092 134.95 29.2467 135.16 29.4929C135.369 29.739 135.472 30.0567 135.446 30.3771C135.442 30.6897 135.32 30.9896 135.105 31.2186C134.89 31.4477 134.596 31.5895 134.281 31.6166C134.133 31.6341 133.984 31.6411 133.834 31.6376C130.799 31.6376 127.758 31.6376 124.718 31.6376C123.443 31.6376 122.805 31.0452 122.801 29.7805C122.801 25.6155 122.801 21.4491 122.801 17.2812C122.801 16.088 123.362 15.4746 124.561 15.462C127.644 15.4284 130.731 15.4326 133.813 15.462C134.791 15.462 135.306 16.1132 135.148 16.9787C135.112 17.2215 134.996 17.446 134.819 17.618C134.641 17.7901 134.412 17.9005 134.166 17.9325C133.902 17.9767 133.634 17.9978 133.367 17.9955H126.117V17.9913Z" fill="#70E8FF"/>
<path d="M113.187 28.0832C113.302 27.7597 113.399 27.5034 113.489 27.2429C114.739 23.6016 115.987 19.9604 117.235 16.3191C117.571 15.3402 118.34 14.9327 119.246 15.2268C119.45 15.29 119.639 15.3946 119.8 15.5339C119.961 15.6731 120.092 15.844 120.182 16.0356C120.273 16.2273 120.323 16.4355 120.327 16.6471C120.332 16.8586 120.293 17.0689 120.211 17.2645C119.475 19.3652 118.697 21.4365 117.923 23.5162C117.15 25.5959 116.35 27.7176 115.555 29.8184C115.43 30.1337 115.288 30.4422 115.13 30.7427C114.326 32.314 111.826 32.2972 111.108 30.7427C110.572 29.5999 110.143 28.4067 109.696 27.2261C108.534 24.1282 107.386 21.0276 106.252 17.9241C106.1 17.5003 106.009 17.0577 105.98 16.609C105.965 16.2827 106.067 15.9616 106.267 15.7019C106.468 15.4423 106.754 15.2607 107.077 15.1889C107.97 15.0209 108.595 15.1637 108.901 15.878C109.326 16.8233 109.658 17.7938 109.994 18.7644C111.018 21.7054 112.022 24.6884 113.034 27.6504C113.076 27.7933 113.119 27.9025 113.187 28.0832Z" fill="#70E8FF"/>
<path d="M103.356 23.5707C103.356 25.7471 103.356 27.9192 103.356 30.0914C103.356 31.2342 102.642 31.9316 101.52 31.8896C101.182 31.8719 100.86 31.7438 100.605 31.5255C100.349 31.3072 100.175 31.011 100.108 30.6838C100.038 30.3678 100.004 30.0451 100.006 29.7216C100.006 25.5846 100.006 21.449 100.006 17.3148C100.009 17.0057 100.041 16.6976 100.104 16.3947C100.169 16.0284 100.368 15.6984 100.662 15.4663C100.957 15.2343 101.326 15.1163 101.702 15.1342C102.079 15.1261 102.447 15.2524 102.737 15.4901C103.028 15.7277 103.222 16.0608 103.284 16.4283C103.339 16.7333 103.365 17.0428 103.361 17.3526C103.361 19.4281 103.361 21.4994 103.361 23.5749L103.356 23.5707Z" fill="#70E8FF"/>
<path d="M92.2978 59.9171C92.0685 60.5763 91.8452 61.2326 91.613 61.883C91.3191 62.67 91.0253 63.4541 90.749 64.2439C90.7079 64.363 90.6462 64.424 90.5198 64.3978C90.3934 64.3717 90.1818 64.4966 90.1025 64.2497C89.6499 62.8442 89.1885 61.4445 88.7301 60.042C88.7156 60.0014 88.6989 59.9617 88.6801 59.9229C88.6801 60.0332 88.6566 60.0884 88.6537 60.1436C88.5831 61.5055 88.5097 62.8675 88.4421 64.2294C88.4421 64.363 88.4009 64.4414 88.2422 64.4269C88.0836 64.4123 87.9484 64.4269 87.7515 64.4269L88.1247 59.1301C88.4186 59.1301 88.6801 59.1301 88.9534 59.1301C88.9916 59.1301 89.0416 59.1998 89.0592 59.2463C89.5118 60.5724 89.9614 61.9005 90.4081 63.2305C90.4287 63.2856 90.4434 63.3408 90.4669 63.4192C90.6638 62.8384 90.8372 62.2576 91.0341 61.7117C91.328 60.8986 91.6218 60.0913 91.9333 59.2811C91.9379 59.2556 91.9476 59.2312 91.9618 59.2093C91.976 59.1874 91.9943 59.1685 92.0159 59.1537C92.0375 59.1389 92.0618 59.1284 92.0875 59.1228C92.1131 59.1173 92.1397 59.1168 92.1655 59.1214C92.4006 59.1214 92.6357 59.1214 92.8914 59.1214C93.0031 60.887 93.1118 62.6352 93.2235 64.4007H92.524L92.2978 59.9171Z" fill="white"/>
<path d="M112.972 63.3726C113.463 62.0194 113.959 60.6574 114.441 59.3071C114.451 59.2522 114.483 59.2034 114.529 59.1713C114.575 59.1393 114.632 59.1265 114.688 59.1358C114.914 59.1503 115.144 59.1358 115.402 59.1358C115.514 60.8956 115.623 62.6437 115.734 64.4122H115.038C114.961 62.9196 114.885 61.4299 114.808 59.9634C114.282 61.4153 113.748 62.9138 113.213 64.3948C112.69 64.4267 112.684 64.4296 112.531 63.9824C112.078 62.6582 111.629 61.3311 111.182 60.0011C111.182 60.0592 111.167 60.1376 111.164 60.2131C111.092 61.5683 111.021 62.9167 110.953 64.2583C110.953 64.3832 110.903 64.4383 110.771 64.4325C110.638 64.4267 110.45 64.4325 110.265 64.4325C110.389 62.664 110.512 60.9159 110.638 59.1387C110.915 59.1387 111.191 59.1387 111.461 59.1387C111.499 59.1387 111.555 59.2084 111.57 59.2548C112.026 60.5868 112.478 61.9206 112.925 63.2564C112.951 63.3029 112.966 63.3523 112.972 63.3726Z" fill="white"/>
<path d="M94.0256 62.5247C94.0256 61.5635 94.534 60.8376 95.3627 60.6111C95.6362 60.5205 95.9275 60.495 96.2129 60.5367C96.4982 60.5785 96.7696 60.6862 97.0048 60.8513C97.24 61.0163 97.4324 61.234 97.5663 61.4864C97.7002 61.7389 97.7719 62.019 97.7754 62.304C97.8195 62.6194 97.7865 62.9405 97.6791 63.2407C97.5718 63.5408 97.3932 63.8111 97.1583 64.029C96.8905 64.2768 96.5543 64.4405 96.1923 64.4994C95.8303 64.5583 95.4588 64.5098 95.1247 64.36C94.4047 64.0696 94.0932 63.4888 94.0256 62.7454C94.0197 62.6728 94.0256 62.5973 94.0256 62.5247ZM94.7485 62.5625C94.7377 62.8878 94.8268 63.2087 95.0042 63.483C95.0962 63.6327 95.2256 63.7564 95.38 63.8423C95.5344 63.9281 95.7086 63.9732 95.8858 63.9732C96.063 63.9732 96.2372 63.9281 96.3916 63.8423C96.546 63.7564 96.6755 63.6327 96.7674 63.483C96.9628 63.2002 97.0696 62.8668 97.0743 62.5243C97.079 62.1819 96.9815 61.8457 96.7939 61.5578C96.7037 61.402 96.5739 61.2723 96.4173 61.1816C96.2606 61.0908 96.0827 61.0421 95.9011 61.0403C95.7196 61.0386 95.5407 61.0838 95.3823 61.1715C95.224 61.2592 95.0915 61.3864 94.9983 61.5403C94.8085 61.8467 94.7211 62.2043 94.7485 62.5625Z" fill="white"/>
<path d="M120.299 62.4957C120.319 62.7895 120.27 63.0839 120.155 63.3559C120.041 63.628 119.865 63.8702 119.64 64.0638C119.37 64.2983 119.036 64.4505 118.68 64.502C118.324 64.5536 117.96 64.5022 117.633 64.3542C116.925 64.0638 116.611 63.483 116.549 62.7512C116.494 62.2914 116.59 61.8262 116.822 61.4241C117.036 61.0735 117.361 60.8024 117.747 60.6528C118.133 60.5032 118.557 60.4834 118.956 60.5965C119.339 60.6975 119.679 60.9206 119.921 61.2314C120.163 61.5422 120.295 61.9233 120.296 62.3156C120.299 62.3766 120.299 62.4347 120.299 62.4957ZM119.579 62.5218C119.58 62.201 119.501 61.885 119.349 61.6013C119.257 61.44 119.123 61.3058 118.962 61.2124C118.8 61.119 118.616 61.0698 118.428 61.0698C118.241 61.0698 118.057 61.119 117.895 61.2124C117.733 61.3058 117.599 61.44 117.507 61.6013C117.334 61.8859 117.243 62.2124 117.247 62.5446C117.25 62.8768 117.346 63.2016 117.524 63.483C117.613 63.6352 117.74 63.7622 117.892 63.8517C118.045 63.9411 118.219 63.99 118.396 63.9935C118.574 63.997 118.749 63.955 118.905 63.8717C119.062 63.7883 119.193 63.6664 119.288 63.5179C119.488 63.2243 119.59 62.8758 119.579 62.5218Z" fill="white"/>
<path d="M120.91 62.5392C120.91 61.5722 121.409 60.8462 122.235 60.611C122.51 60.5186 122.803 60.492 123.091 60.5334C123.378 60.5748 123.651 60.683 123.888 60.8491C124.125 61.0153 124.318 61.2346 124.452 61.4891C124.586 61.7435 124.658 62.0258 124.66 62.3127C124.703 62.6243 124.67 62.9416 124.565 63.2384C124.46 63.5352 124.285 63.8031 124.054 64.0202C123.787 64.2698 123.451 64.4356 123.089 64.4966C122.726 64.5575 122.353 64.511 122.018 64.3629C121.292 64.0725 120.974 63.4917 120.91 62.7367C120.904 62.6728 120.91 62.606 120.91 62.5392ZM121.633 62.5392H121.58C121.642 62.8209 121.725 63.0976 121.83 63.3668C121.909 63.54 122.035 63.6882 122.195 63.7949C122.354 63.9016 122.54 63.9626 122.732 63.9714C122.924 63.9801 123.115 63.9361 123.284 63.8443C123.452 63.7524 123.592 63.6163 123.687 63.451C123.863 63.169 123.956 62.8443 123.956 62.5131C123.956 62.1818 123.863 61.8571 123.687 61.5751C123.597 61.4173 123.467 61.2855 123.309 61.1932C123.152 61.1009 122.972 61.0512 122.789 61.0491C122.606 61.047 122.426 61.0927 122.266 61.1815C122.106 61.2702 121.973 61.399 121.88 61.5548C121.698 61.8463 121.612 62.186 121.633 62.5276V62.5392Z" fill="white"/>
<path d="M98.3927 62.545C98.3927 61.6158 98.8394 60.913 99.6123 60.6459C101.035 60.1551 102.322 61.2267 102.131 62.7425C102.007 63.7473 101.426 64.3658 100.491 64.4849C100.237 64.5259 99.9776 64.513 99.7294 64.4469C99.4811 64.3809 99.25 64.2633 99.0514 64.1019C98.8528 63.9406 98.6913 63.7393 98.5777 63.5113C98.4641 63.2834 98.4011 63.0342 98.3927 62.7803C98.3869 62.7048 98.3927 62.638 98.3927 62.545ZM99.0628 62.545H99.1127C99.0958 62.8726 99.182 63.1972 99.3596 63.4743C99.4499 63.63 99.5802 63.7593 99.7374 63.8493C99.8945 63.9392 100.073 63.9866 100.254 63.9866C100.436 63.9866 100.614 63.9392 100.772 63.8493C100.929 63.7593 101.059 63.63 101.149 63.4743C101.328 63.1983 101.427 62.8789 101.435 62.5511C101.443 62.2234 101.359 61.8998 101.193 61.6158C101.106 61.4334 100.963 61.2827 100.784 61.1848C100.605 61.0869 100.4 61.0467 100.197 61.0698C99.9968 61.0736 99.8022 61.1373 99.6391 61.2523C99.476 61.3674 99.3519 61.5285 99.2832 61.7145C99.1901 61.981 99.1165 62.2537 99.0628 62.5305V62.545Z" fill="white"/>
<path d="M106.86 62.0079C106.936 61.4648 106.689 61.1367 106.181 61.067C105.776 61.0293 105.371 61.1209 105.023 61.3284L104.858 60.8724C105.304 60.6015 105.829 60.4869 106.348 60.5472C106.671 60.5495 106.979 60.6768 107.207 60.9017C107.435 61.1266 107.565 61.431 107.568 61.7494C107.603 62.0805 107.597 62.4144 107.603 62.7455C107.603 63.0359 107.603 63.3059 107.603 63.5847V64.4123H107.015L106.945 63.9971C106.785 64.1245 106.617 64.2419 106.442 64.3484C106.264 64.4442 106.066 64.5005 105.863 64.5135C105.66 64.5266 105.457 64.496 105.267 64.4239C105.086 64.3455 104.929 64.2226 104.809 64.067C104.69 63.9115 104.613 63.7284 104.586 63.5352C104.559 63.3419 104.582 63.145 104.653 62.9631C104.724 62.7812 104.841 62.6203 104.993 62.4957C105.422 62.1783 105.945 62.0081 106.48 62.0108C106.607 61.9992 106.727 62.0079 106.86 62.0079ZM106.883 62.4464C106.533 62.5016 106.201 62.5393 105.878 62.6177C105.731 62.6618 105.598 62.7417 105.49 62.85C105.412 62.9281 105.354 63.0238 105.322 63.1288C105.289 63.2337 105.283 63.3449 105.304 63.4528C105.324 63.5607 105.371 63.6621 105.44 63.7483C105.508 63.8344 105.597 63.9029 105.699 63.9477C105.819 63.9838 105.945 63.9956 106.07 63.9824C106.195 63.9692 106.316 63.9312 106.426 63.8708C106.536 63.8103 106.632 63.7286 106.709 63.6306C106.786 63.5325 106.842 63.4202 106.874 63.3001C106.898 63.0161 106.901 62.7308 106.883 62.4464Z" fill="white"/>
<path d="M130.152 64.4095C130.128 64.4111 130.103 64.4111 130.079 64.4095C129.917 64.4095 129.723 64.4589 129.605 64.3892C129.488 64.3195 129.497 64.122 129.444 63.971C129.188 64.2621 128.83 64.4468 128.442 64.4879C128.188 64.5273 127.929 64.4836 127.703 64.3635C127.476 64.2435 127.296 64.0536 127.19 63.8229C127.096 63.5857 127.08 63.3252 127.146 63.0789C127.211 62.8325 127.354 62.6131 127.554 62.4522C127.985 62.1536 128.498 61.9934 129.024 61.9934C129.141 61.9934 129.262 61.9934 129.376 61.9934C129.406 61.8878 129.411 61.7772 129.392 61.6693C129.373 61.5614 129.331 61.459 129.267 61.3692C129.204 61.2794 129.121 61.2045 129.025 61.1498C128.929 61.0951 128.822 61.0618 128.712 61.0525C128.383 61.0061 128.098 61.0525 127.537 61.3081L127.381 60.8493C127.674 60.6743 128.003 60.5656 128.344 60.531C128.685 60.4963 129.029 60.5366 129.353 60.6489C129.509 60.7053 129.65 60.798 129.762 60.9193C129.875 61.0406 129.956 61.1869 129.999 61.3458C130.065 61.5622 130.104 61.7854 130.117 62.0108C130.143 62.7804 130.149 63.5528 130.164 64.334C130.162 64.3594 130.158 64.3846 130.152 64.4095ZM129.423 62.4871C129.053 62.4632 128.682 62.5156 128.333 62.641C128.208 62.6903 128.095 62.7644 128.001 62.8588C127.924 62.9395 127.868 63.0376 127.838 63.1445C127.809 63.2515 127.806 63.364 127.83 63.4723C127.854 63.5805 127.905 63.6813 127.978 63.7657C128.051 63.8501 128.143 63.9156 128.248 63.9565C128.375 63.9922 128.508 64.0007 128.639 63.9816C128.77 63.9624 128.895 63.916 129.006 63.8454C129.117 63.7749 129.212 63.6817 129.284 63.5722C129.356 63.4627 129.403 63.3392 129.423 63.2101C129.438 62.9693 129.438 62.7279 129.423 62.4871Z" fill="white"/>
<path d="M103.709 64.4268C103.524 64.4268 103.357 64.4268 103.189 64.4268C103.022 64.4268 103.01 64.3717 103.01 64.2381C103.01 63.5411 103.01 62.8413 103.01 62.1414V58.8629H103.706L103.709 64.4268Z" fill="white"/>
<path d="M125.535 58.8629H125.706H126.232V64.4384C126.038 64.4384 125.835 64.4384 125.644 64.4384C125.609 64.4384 125.567 64.3804 125.55 64.3397C125.542 64.3004 125.542 64.26 125.55 64.2207V58.8629H125.535Z" fill="white"/>
</g>
<defs>
<filter id="filter0_d_846_1342" x="0" y="0" width="158" height="88" filterUnits="userSpaceOnUse" color-interpolation-filters="sRGB">
<feFlood flood-opacity="0" result="BackgroundImageFix"/>
<feColorMatrix in="SourceAlpha" type="matrix" values="0 0 0 0 0 0 0 0 0 0 0 0 0 0 0 0 0 0 127 0" result="hardAlpha"/>
<feOffset dy="4"/>
<feGaussianBlur stdDeviation="2"/>
<feComposite in2="hardAlpha" operator="out"/>
<feColorMatrix type="matrix" values="0 0 0 0 0 0 0 0 0 0 0 0 0 0 0 0 0 0 0.25 0"/>
<feBlend mode="normal" in2="BackgroundImageFix" result="effect1_dropShadow_846_1342"/>
<feBlend mode="normal" in="SourceGraphic" in2="effect1_dropShadow_846_1342" result="shape"/>
</filter>
<linearGradient id="paint0_linear_846_1342" x1="31.1759" y1="0.0169973" x2="31.1759" y2="48.3966" gradientUnits="userSpaceOnUse">
<stop offset="0.09" stop-color="#FC67F7"/>
<stop offset="0.49" stop-color="#FB4BF4"/>
<stop offset="0.84" stop-color="#993399"/>
</linearGradient>
<linearGradient id="paint1_linear_846_1342" x1="25.4276" y1="31.6161" x2="25.4276" y2="79.9957" gradientUnits="userSpaceOnUse">
<stop stop-color="#458499"/>
<stop offset="0.57" stop-color="#5768D7"/>
<stop offset="0.98" stop-color="#7D88DD"/>
</linearGradient>
</defs>
</svg>
