<svg width="80" height="128" viewBox="0 0 80 128" fill="none" xmlns="http://www.w3.org/2000/svg">
<g filter="url(#filter0_d_427_5148)">
<path d="M57.6058 40.7541C57.4674 41.2574 57.3919 41.5406 57.3101 41.83C57.063 42.996 56.4776 44.0632 55.627 44.8981C54.7764 45.733 53.6985 46.2985 52.5281 46.5239C51.7731 46.6938 51.5969 46.5239 51.7102 45.8003C51.8045 45.1711 51.9933 44.5419 52.0373 43.9504C52.1309 43.1639 52.1203 42.3684 52.0059 41.5846C51.6976 40.106 51.2571 38.6588 50.8356 37.1802C50.6776 36.7475 50.4883 36.3269 50.2693 35.9218C48.9039 36.4188 47.614 36.9662 46.2801 37.35C45.3006 37.6325 44.2909 37.7972 43.2725 37.8408C40.5427 37.8803 37.8419 37.2768 35.3885 36.0791C36.1561 34.4368 37.9053 34.2795 39.1134 33.3105C39.082 32.9079 39.0694 32.4611 38.4339 32.4674C35.7975 32.4674 33.1296 32.071 30.5373 32.8009C29.4784 33.1625 28.4461 33.5977 27.4479 34.1034C27.3682 34.1283 27.2966 34.1738 27.2403 34.2355C25.8686 36.1546 24.0942 37.8597 24.0502 40.4646C24.0502 41.5846 23.8614 42.7927 24.2264 43.7868C24.541 44.6614 25.4848 45.341 26.1832 46.0394C28.1463 47.927 30.6317 47.5684 32.9724 47.3419C34.2308 47.216 35.4892 46.5239 36.6784 46.0394C37.66 45.6493 38.6163 45.2089 39.5727 44.781C40.737 44.1291 42.0859 43.8854 43.4046 44.0889C43.9395 44.2376 44.4009 44.578 44.7008 45.0453C45.0343 45.5801 44.7008 46.1086 44.2478 46.5805C43.4675 47.4237 42.7565 48.3297 42.0078 49.2043C40.5732 50.8717 39.1575 52.558 37.6788 54.1876C37.0769 54.8148 36.4152 55.3816 35.7031 55.8802C34.9544 56.4402 34.9984 56.9373 35.3822 57.7678C36.1561 59.4541 37.2698 61.1278 36.0618 63.1413C35.6528 63.8334 35.7031 64.7835 35.4703 65.5889C35.3021 66.1996 35.0635 66.7887 34.7593 67.3444C33.9815 68.6787 33.5956 70.2052 33.6456 71.7488C33.6199 71.9957 33.5518 72.2362 33.4443 72.4598C31.6888 69.7417 30.0339 67.0549 28.2344 64.4752C27.2493 63.2073 26.1992 61.9913 25.0884 60.8321C24.585 60.2532 24.1194 59.6366 23.6349 59.0388C23.0497 58.3152 22.3765 57.6357 21.892 56.8618C19.9289 53.8605 17.1163 51.4443 15.8327 47.9837C15.6442 47.524 15.408 47.0853 15.128 46.6749C14.0961 45.0516 13.7878 43.1891 13.2404 41.3833C12.6255 39.0942 12.3812 36.7214 12.5168 34.355C12.5968 31.1786 13.4246 28.0658 14.933 25.2693C16.5097 22.2312 18.6917 19.5481 21.3446 17.3853C23.5202 15.7186 25.8145 14.2129 28.2092 12.8802C29.1367 12.4008 30.1318 12.0655 31.1602 11.886C31.953 11.7035 32.6955 11.4204 33.4568 11.175C35.4222 10.5647 37.4309 10.104 39.4658 9.79706C40.9977 9.60803 42.5409 9.52603 44.0842 9.55166C44.7134 9.55166 45.072 9.36289 45.1853 8.66447C45.3866 7.44381 45.6886 6.24203 45.9403 5.03395C46.1315 3.76847 45.9294 2.47481 45.3615 1.32791C45.2686 0.897921 45.2515 0.455015 45.3111 0.0191636C45.6893 -0.0190906 46.0712 -1.37357e-06 46.4437 0.07579C50.6342 1.5796 53.365 4.51171 54.9002 8.65819C55.4813 10.1978 56.1906 11.6858 57.0207 13.1067C57.4463 13.7434 58.0294 14.2593 58.7132 14.6042C65.6974 18.4612 69.7055 24.3947 71.4736 32.1088C72.1405 35.0283 72.3356 37.9667 72.732 40.9177C72.8235 41.6242 73.0363 42.3096 73.3612 42.9437C74.3409 44.7952 75.0084 46.7957 75.3369 48.8646C75.3652 49.2219 75.4436 49.5735 75.5697 49.909C76.3122 51.4632 75.7207 52.8034 74.9405 54.1059C74.3113 55.1 73.5122 55.3643 72.5621 54.6407C71.5322 53.9518 70.6081 53.1167 69.8188 52.1616C67.8829 49.5719 65.6531 47.2155 63.1743 45.1396C61.9474 44.1014 60.7645 43.0129 59.5186 41.9936C58.9027 41.5479 58.2643 41.1341 57.6058 40.7541Z" fill="url(#paint0_linear_427_5148)"/>
<path d="M22.3261 79.0794C22.4645 78.576 22.54 78.2929 22.6155 78.0034C22.8638 76.837 23.4504 75.7696 24.3021 74.9347C25.1537 74.0998 26.2326 73.5346 27.4038 73.3095C28.1588 73.1397 28.3287 73.3095 28.2155 74.0331C28.1274 74.6623 27.9323 75.2601 27.8946 75.883C27.7875 76.668 27.7875 77.4638 27.8946 78.2488C28.1966 79.7274 28.6433 81.1746 29.0586 82.6533C29.2191 83.0859 29.4104 83.5065 29.6312 83.9117C30.9966 83.4146 32.2864 82.8672 33.6204 82.4834C34.5997 82.2004 35.6095 82.0356 36.628 81.9926C39.3572 81.9679 42.0538 82.5865 44.4994 83.7984C43.7317 85.4407 41.9825 85.598 40.7745 86.5669C40.8122 86.9633 40.8185 87.4101 41.454 87.4101C44.0967 87.4101 46.7582 87.8002 49.3506 87.0766C50.4115 86.715 51.4459 86.2798 52.4463 85.7741C52.5259 85.7492 52.5976 85.7036 52.6539 85.642C54.0256 83.7229 55.7999 82.0178 55.8377 79.4128C55.8377 78.2929 56.0264 77.0848 55.6678 76.0906C55.3532 75.216 54.4094 74.5365 53.711 73.8381C51.7415 71.9505 49.2625 72.3091 46.9155 72.5356C45.6571 72.6615 44.4364 73.3536 43.2158 73.8381C42.2342 74.2219 41.2778 74.6686 40.3214 75.0965C39.1572 75.7484 37.8083 75.9921 36.4896 75.7886C35.9541 75.641 35.4923 75.3003 35.1934 74.8322C34.8599 74.2911 35.1934 73.7626 35.6464 73.2969C36.4266 72.4538 37.1376 71.5478 37.8864 70.6732C39.321 69.0058 40.7367 67.3132 42.2153 65.6898C42.8137 65.0613 43.4734 64.4943 44.1848 63.9973C44.9335 63.4373 44.8958 62.9402 44.512 62.1096C43.738 60.4234 42.6243 58.7497 43.8324 56.7362C44.2351 56.0441 44.1911 55.094 44.4176 54.2886C44.583 53.6649 44.8217 53.063 45.1286 52.4953C45.9104 51.1625 46.2988 49.6354 46.2486 48.0909C46.2754 47.845 46.3413 47.605 46.4436 47.3799C48.2054 50.0981 49.8539 52.7848 51.6597 55.3645C52.6466 56.631 53.6966 57.8469 54.8058 59.0076C55.3154 59.5865 55.7811 60.2031 56.2655 60.8009C56.8507 61.5245 57.524 62.204 58.0085 62.9779C59.9653 65.9793 62.7841 68.3954 64.0614 71.8561C64.2521 72.3159 64.4904 72.7546 64.7724 73.1648C65.8043 74.7882 66.1126 76.6506 66.6601 78.4565C67.2752 80.7455 67.5196 83.1183 67.3837 85.4847C67.303 88.661 66.4752 91.7737 64.9675 94.5705C63.3908 97.6085 61.2088 100.292 58.5559 102.454C56.3968 104.107 54.1216 105.602 51.7478 106.928C50.8212 107.409 49.8258 107.745 48.7969 107.922C48.0103 108.105 47.2616 108.388 46.5065 108.633C44.541 109.243 42.5324 109.704 40.4976 110.011C38.9636 110.2 37.4183 110.282 35.8729 110.257C35.2437 110.257 34.8851 110.445 34.7718 111.144C34.5768 112.364 34.2747 113.566 34.0168 114.774C33.8304 116.04 34.0345 117.333 34.6019 118.48C34.692 118.911 34.709 119.353 34.6523 119.789C34.274 119.827 33.8922 119.808 33.5197 119.732C29.3292 118.229 26.5984 115.328 25.0631 111.15C24.4795 109.612 23.7703 108.124 22.9427 106.702C22.5166 106.063 21.931 105.547 21.2438 105.204C14.2471 101.322 10.2201 95.4136 8.47093 87.6995C7.79768 84.78 7.60263 81.8416 7.21252 78.8906C7.10782 78.1801 6.88224 77.4927 6.54556 76.8583C5.56701 75.009 4.90153 73.0105 4.57614 70.9437C4.54785 70.5864 4.46949 70.2348 4.34333 69.8992C3.59458 68.3451 4.19232 67.0049 4.97254 65.7024C5.60175 64.7083 6.40084 64.4755 7.35095 65.1676C8.37759 65.8583 9.2994 66.6932 10.088 67.6467C12.0257 70.2348 14.2552 72.591 16.7324 74.6686C17.9908 75.7068 19.1486 76.7954 20.3944 77.8147C21.0159 78.2695 21.6607 78.6917 22.3261 79.0794Z" fill="url(#paint1_linear_427_5148)"/>
</g>
<defs>
<filter id="filter0_d_427_5148" x="0" y="0" width="79.9102" height="127.808" filterUnits="userSpaceOnUse" color-interpolation-filters="sRGB">
<feFlood flood-opacity="0" result="BackgroundImageFix"/>
<feColorMatrix in="SourceAlpha" type="matrix" values="0 0 0 0 0 0 0 0 0 0 0 0 0 0 0 0 0 0 127 0" result="hardAlpha"/>
<feOffset dy="4"/>
<feGaussianBlur stdDeviation="2"/>
<feComposite in2="hardAlpha" operator="out"/>
<feColorMatrix type="matrix" values="0 0 0 0 0 0 0 0 0 0 0 0 0 0 0 0 0 0 0.25 0"/>
<feBlend mode="normal" in2="BackgroundImageFix" result="effect1_dropShadow_427_5148"/>
<feBlend mode="normal" in="SourceGraphic" in2="effect1_dropShadow_427_5148" result="shape"/>
</filter>
<linearGradient id="paint0_linear_427_5148" x1="44.2163" y1="0.0254551" x2="44.2163" y2="72.4787" gradientUnits="userSpaceOnUse">
<stop offset="0.09" stop-color="#FC67F7"/>
<stop offset="0.49" stop-color="#FB4BF4"/>
<stop offset="0.84" stop-color="#993399"/>
</linearGradient>
<linearGradient id="paint1_linear_427_5148" x1="35.7093" y1="47.3484" x2="35.7093" y2="119.802" gradientUnits="userSpaceOnUse">
<stop stop-color="#458499"/>
<stop offset="0.57" stop-color="#5768D7"/>
<stop offset="0.98" stop-color="#7D88DD"/>
</linearGradient>
</defs>
</svg>
