<svg width="226" height="128" viewBox="0 0 226 128" fill="none" xmlns="http://www.w3.org/2000/svg">
<g filter="url(#filter0_d_427_5146)">
<path d="M57.6058 40.7541C57.4674 41.2574 57.3919 41.5406 57.3101 41.83C57.063 42.996 56.4776 44.0632 55.627 44.8981C54.7764 45.733 53.6985 46.2985 52.5281 46.5239C51.7731 46.6938 51.5969 46.5239 51.7102 45.8003C51.8045 45.1711 51.9933 44.5419 52.0373 43.9504C52.1309 43.1639 52.1203 42.3684 52.0059 41.5846C51.6976 40.106 51.2571 38.6588 50.8356 37.1802C50.6776 36.7475 50.4883 36.3269 50.2693 35.9218C48.9039 36.4188 47.614 36.9662 46.2801 37.35C45.3006 37.6325 44.2909 37.7972 43.2725 37.8408C40.5427 37.8803 37.8419 37.2768 35.3885 36.0791C36.1561 34.4368 37.9053 34.2795 39.1134 33.3105C39.082 32.9079 39.0694 32.4611 38.4339 32.4674C35.7975 32.4674 33.1296 32.071 30.5373 32.8009C29.4784 33.1625 28.4461 33.5977 27.4479 34.1034C27.3682 34.1283 27.2966 34.1738 27.2403 34.2355C25.8686 36.1546 24.0942 37.8597 24.0502 40.4646C24.0502 41.5846 23.8614 42.7927 24.2264 43.7868C24.541 44.6614 25.4848 45.341 26.1832 46.0394C28.1463 47.927 30.6317 47.5684 32.9724 47.3419C34.2308 47.216 35.4892 46.5239 36.6784 46.0394C37.66 45.6493 38.6163 45.2089 39.5727 44.781C40.737 44.1291 42.0859 43.8854 43.4046 44.0889C43.9395 44.2376 44.4009 44.578 44.7008 45.0453C45.0343 45.5801 44.7008 46.1086 44.2478 46.5805C43.4675 47.4237 42.7565 48.3297 42.0078 49.2043C40.5732 50.8717 39.1575 52.558 37.6788 54.1876C37.0769 54.8148 36.4152 55.3816 35.7031 55.8802C34.9544 56.4402 34.9984 56.9373 35.3822 57.7678C36.1561 59.4541 37.2698 61.1278 36.0618 63.1413C35.6528 63.8334 35.7031 64.7835 35.4703 65.5889C35.3021 66.1996 35.0635 66.7887 34.7593 67.3444C33.9815 68.6787 33.5956 70.2052 33.6456 71.7488C33.6199 71.9957 33.5518 72.2362 33.4443 72.4598C31.6888 69.7417 30.0339 67.0549 28.2344 64.4752C27.2493 63.2073 26.1992 61.9913 25.0884 60.8321C24.585 60.2532 24.1194 59.6366 23.6349 59.0388C23.0497 58.3152 22.3765 57.6357 21.892 56.8618C19.9289 53.8605 17.1163 51.4443 15.8327 47.9837C15.6442 47.524 15.408 47.0853 15.128 46.6749C14.0961 45.0516 13.7878 43.1891 13.2404 41.3833C12.6255 39.0942 12.3812 36.7214 12.5168 34.355C12.5968 31.1786 13.4246 28.0658 14.933 25.2693C16.5097 22.2312 18.6917 19.5481 21.3446 17.3853C23.5202 15.7186 25.8145 14.2129 28.2092 12.8802C29.1367 12.4008 30.1318 12.0655 31.1602 11.886C31.953 11.7035 32.6955 11.4204 33.4568 11.175C35.4222 10.5647 37.4309 10.104 39.4658 9.79706C40.9977 9.60803 42.5409 9.52603 44.0842 9.55166C44.7134 9.55166 45.072 9.36289 45.1853 8.66447C45.3866 7.44381 45.6886 6.24203 45.9403 5.03395C46.1315 3.76847 45.9294 2.47481 45.3615 1.32791C45.2686 0.897921 45.2515 0.455015 45.3111 0.0191636C45.6893 -0.0190906 46.0712 -1.37357e-06 46.4437 0.07579C50.6342 1.5796 53.365 4.51171 54.9002 8.65819C55.4813 10.1978 56.1906 11.6858 57.0207 13.1067C57.4463 13.7434 58.0294 14.2593 58.7132 14.6042C65.6974 18.4612 69.7055 24.3947 71.4736 32.1088C72.1405 35.0283 72.3356 37.9667 72.732 40.9177C72.8235 41.6242 73.0363 42.3096 73.3612 42.9437C74.3409 44.7952 75.0084 46.7957 75.3369 48.8646C75.3652 49.2219 75.4436 49.5735 75.5697 49.909C76.3122 51.4632 75.7207 52.8034 74.9405 54.1059C74.3113 55.1 73.5122 55.3643 72.5621 54.6407C71.5322 53.9518 70.6081 53.1167 69.8188 52.1616C67.8829 49.5719 65.6531 47.2155 63.1743 45.1396C61.9474 44.1014 60.7645 43.0129 59.5186 41.9936C58.9027 41.5479 58.2643 41.1341 57.6058 40.7541Z" fill="url(#paint0_linear_427_5146)"/>
<path d="M22.3261 79.0794C22.4645 78.576 22.54 78.2929 22.6155 78.0034C22.8638 76.837 23.4504 75.7696 24.3021 74.9347C25.1537 74.0998 26.2326 73.5346 27.4038 73.3095C28.1588 73.1397 28.3287 73.3095 28.2155 74.0331C28.1274 74.6623 27.9323 75.2601 27.8946 75.883C27.7875 76.668 27.7875 77.4638 27.8946 78.2488C28.1966 79.7274 28.6433 81.1746 29.0586 82.6533C29.2191 83.0859 29.4104 83.5065 29.6312 83.9117C30.9966 83.4146 32.2864 82.8672 33.6204 82.4834C34.5997 82.2004 35.6095 82.0356 36.628 81.9926C39.3572 81.9679 42.0538 82.5865 44.4994 83.7984C43.7317 85.4407 41.9825 85.598 40.7745 86.5669C40.8122 86.9633 40.8185 87.4101 41.454 87.4101C44.0967 87.4101 46.7582 87.8002 49.3506 87.0766C50.4115 86.715 51.4459 86.2798 52.4463 85.7741C52.5259 85.7492 52.5976 85.7036 52.6539 85.642C54.0256 83.7229 55.7999 82.0178 55.8377 79.4128C55.8377 78.2929 56.0264 77.0848 55.6678 76.0906C55.3532 75.216 54.4094 74.5365 53.711 73.8381C51.7415 71.9505 49.2625 72.3091 46.9155 72.5356C45.6571 72.6615 44.4364 73.3536 43.2158 73.8381C42.2342 74.2219 41.2778 74.6686 40.3214 75.0965C39.1572 75.7484 37.8083 75.9921 36.4896 75.7886C35.9541 75.641 35.4923 75.3003 35.1934 74.8322C34.8599 74.2911 35.1934 73.7626 35.6464 73.2969C36.4266 72.4538 37.1376 71.5478 37.8864 70.6732C39.321 69.0058 40.7367 67.3132 42.2153 65.6898C42.8137 65.0613 43.4734 64.4943 44.1848 63.9973C44.9335 63.4373 44.8958 62.9402 44.512 62.1096C43.738 60.4234 42.6243 58.7497 43.8324 56.7362C44.2351 56.0441 44.1911 55.094 44.4176 54.2886C44.583 53.6649 44.8217 53.063 45.1286 52.4953C45.9104 51.1625 46.2988 49.6354 46.2486 48.0909C46.2754 47.845 46.3413 47.605 46.4436 47.3799C48.2054 50.0981 49.8539 52.7848 51.6597 55.3645C52.6466 56.631 53.6966 57.8469 54.8058 59.0076C55.3154 59.5865 55.7811 60.2031 56.2655 60.8009C56.8507 61.5245 57.524 62.204 58.0085 62.9779C59.9653 65.9793 62.7841 68.3954 64.0614 71.8561C64.2521 72.3159 64.4904 72.7546 64.7724 73.1648C65.8043 74.7882 66.1126 76.6506 66.6601 78.4565C67.2752 80.7455 67.5196 83.1183 67.3837 85.4847C67.303 88.661 66.4752 91.7737 64.9675 94.5705C63.3908 97.6085 61.2088 100.292 58.5559 102.454C56.3968 104.107 54.1216 105.602 51.7478 106.928C50.8212 107.409 49.8258 107.745 48.7969 107.922C48.0103 108.105 47.2616 108.388 46.5065 108.633C44.541 109.243 42.5324 109.704 40.4976 110.011C38.9636 110.2 37.4183 110.282 35.8729 110.257C35.2437 110.257 34.8851 110.445 34.7718 111.144C34.5768 112.364 34.2747 113.566 34.0168 114.774C33.8304 116.04 34.0345 117.333 34.6019 118.48C34.692 118.911 34.709 119.353 34.6523 119.789C34.274 119.827 33.8922 119.808 33.5197 119.732C29.3292 118.229 26.5984 115.328 25.0631 111.15C24.4795 109.612 23.7703 108.124 22.9427 106.702C22.5166 106.063 21.931 105.547 21.2438 105.204C14.2471 101.322 10.2201 95.4136 8.47093 87.6995C7.79768 84.78 7.60263 81.8416 7.21252 78.8906C7.10782 78.1801 6.88224 77.4927 6.54556 76.8583C5.56701 75.009 4.90153 73.0105 4.57614 70.9437C4.54785 70.5864 4.46949 70.2348 4.34333 69.8992C3.59458 68.3451 4.19232 67.0049 4.97254 65.7024C5.60175 64.7083 6.40084 64.4755 7.35095 65.1676C8.37759 65.8583 9.2994 66.6932 10.088 67.6467C12.0257 70.2348 14.2552 72.591 16.7324 74.6686C17.9908 75.7068 19.1486 76.7954 20.3944 77.8147C21.0159 78.2695 21.6607 78.6917 22.3261 79.0794Z" fill="url(#paint1_linear_427_5146)"/>
</g>
<path d="M105.087 73.3411C106.15 69.3205 107.17 65.4571 108.202 61.5938C108.478 60.5556 108.793 59.5237 109.101 58.4918C109.203 58.0718 109.447 57.6996 109.79 57.4374C110.134 57.1751 110.557 57.0387 110.989 57.051C112.115 57.0069 113.241 56.9754 114.361 57.051C115.972 57.1453 116.715 57.9381 116.746 59.5678C116.778 61.4177 116.746 63.2738 116.746 65.1237C116.746 69.6037 116.746 74.0794 116.746 78.551C116.746 78.9918 116.709 79.4318 116.633 79.866C116.543 80.387 116.269 80.8584 115.861 81.1945C115.453 81.5307 114.938 81.7092 114.409 81.6978C113.88 81.6864 113.373 81.4857 112.98 81.1322C112.587 80.7788 112.334 80.296 112.266 79.7716C112.2 79.3555 112.168 78.9346 112.172 78.5132C112.172 73.5928 112.172 68.6745 112.172 63.7583V63.041H112.04C111.933 63.4248 111.826 63.8023 111.725 64.1861C110.416 69.2953 109.12 74.4045 107.799 79.5137C107.703 80.0972 107.413 80.6312 106.976 81.0288C106.538 81.4264 105.979 81.6641 105.389 81.7033C103.816 81.7851 102.828 81.2629 102.362 79.8157C101.733 77.8526 101.268 75.8391 100.752 73.8382C99.8624 70.3398 98.9815 66.8414 98.109 63.343C98.0683 63.17 97.9813 63.0112 97.8573 62.8837V63.5821C97.8573 68.5906 97.8573 73.597 97.8573 78.6013C97.8657 78.954 97.8552 79.3068 97.8259 79.6584C97.7747 80.2145 97.5175 80.7315 97.1049 81.1079C96.6922 81.4843 96.1539 81.6929 95.5953 81.6929C95.0368 81.6929 94.4984 81.4843 94.0858 81.1079C93.6732 80.7315 93.416 80.2145 93.3648 79.6584C93.3386 79.3739 93.3281 79.0883 93.3333 78.8027C93.3333 72.5106 93.3333 66.2185 93.3333 59.9264C93.3333 59.7754 93.3333 59.6181 93.3333 59.4671C93.3837 58.0451 94.0129 57.2523 95.4286 57.1265C96.7024 57.0415 97.9804 57.0415 99.2542 57.1265C99.6693 57.1344 100.069 57.2842 100.387 57.5509C100.706 57.8176 100.923 58.1852 101.003 58.5925C101.714 61.1723 102.432 63.7583 103.13 66.3506C103.709 68.5151 104.275 70.6859 104.854 72.8503C104.923 72.9259 104.98 73.0517 105.087 73.3411Z" fill="#00A3FF"/>
<path d="M153.303 64.9917V74.1844C153.303 75.7323 153.303 77.2738 153.303 78.8154C153.297 79.2774 153.229 79.7366 153.102 80.1808C152.959 80.6498 152.657 81.0543 152.248 81.3243C151.839 81.5943 151.349 81.7128 150.862 81.6594C150.406 81.66 149.964 81.5106 149.602 81.2342C149.24 80.9578 148.98 80.5698 148.861 80.1304C148.751 79.7714 148.694 79.3984 148.691 79.023C148.691 72.6051 148.691 66.1872 148.691 59.7756C148.691 57.888 149.647 56.7806 151.283 56.5918C151.824 56.5206 152.375 56.6125 152.863 56.8557C153.352 57.099 153.757 57.4825 154.027 57.9572C154.996 59.3981 155.914 60.8578 156.896 62.3113L163.88 72.8883C164.017 73.1258 164.209 73.3266 164.44 73.4734V72.7813C164.44 68.4335 164.44 64.0919 164.44 59.7441C164.435 59.2391 164.483 58.735 164.585 58.2403C164.696 57.7733 164.958 57.3558 165.33 57.0522C165.702 56.7485 166.163 56.5755 166.643 56.5598C167.123 56.544 167.594 56.6864 167.985 56.9651C168.376 57.2437 168.665 57.6432 168.807 58.1019C168.935 58.5908 169.001 59.094 169.002 59.5994C169.002 65.8411 169.002 72.0808 169.002 78.3183C168.999 78.6044 168.98 78.8901 168.945 79.174C168.922 79.6788 168.758 80.1671 168.473 80.5838C168.187 81.0006 167.791 81.3292 167.328 81.5327C166.865 81.7361 166.355 81.8063 165.855 81.7353C165.355 81.6643 164.884 81.455 164.497 81.1309C163.84 80.6154 163.278 79.9894 162.835 79.281C159.809 74.7067 156.827 70.1134 153.825 65.5265L153.423 64.9477L153.303 64.9917Z" fill="#00A3FF"/>
<path d="M132.489 56.5542C134.726 56.5032 136.939 57.0298 138.913 58.0831C140.15 58.7758 141.23 59.718 142.083 60.8499C142.937 61.9817 143.546 63.2786 143.871 64.6583C144.691 67.6546 144.663 70.8196 143.79 73.8007C143.21 75.9966 141.935 77.9459 140.156 79.3568C138.376 80.7678 136.188 81.5646 133.917 81.6281C131.738 81.8243 129.543 81.5297 127.493 80.7661C126.128 80.2475 124.893 79.4338 123.879 78.3831C122.864 77.3325 122.093 76.0707 121.623 74.6879C120.266 71.1239 120.25 67.1885 121.579 63.6139C123.164 59.3038 126.424 57.1078 130.922 56.6422C131.445 56.5919 131.973 56.5856 132.489 56.5542ZM139.41 69.4655C139.499 67.6574 139.163 65.8536 138.429 64.199C137.95 63.1097 137.166 62.1826 136.171 61.5304C135.175 60.8781 134.012 60.5287 132.823 60.5245C130.268 60.4112 128.129 61.3487 126.939 63.6705C126.02 65.3304 125.538 67.1967 125.538 69.0943C125.538 70.9918 126.02 72.8581 126.939 74.518C129.223 78.7778 135.383 78.8532 137.969 74.7697C138.931 73.1687 139.429 71.3327 139.41 69.4655Z" fill="#00A3FF"/>
<path d="M189.923 60.8137V66.7031H190.659C193.66 66.7031 196.655 66.7031 199.657 66.7031C200.051 66.6976 200.446 66.7335 200.833 66.8101C201.268 66.8622 201.664 67.0837 201.937 67.4266C202.209 67.7695 202.335 68.2059 202.287 68.641C202.301 69.0762 202.148 69.5004 201.859 69.8259C201.57 70.1514 201.166 70.3534 200.733 70.3903C200.385 70.4438 200.034 70.469 199.682 70.4658H189.929V77.28H200.758C201.199 77.2792 201.639 77.3193 202.073 77.3996C202.516 77.4539 202.924 77.6702 203.218 78.007C203.512 78.3438 203.671 78.7774 203.665 79.2243C203.695 79.6693 203.562 80.11 203.291 80.4642C203.02 80.8185 202.63 81.0621 202.192 81.1497C201.89 81.2138 201.582 81.2434 201.274 81.2378H187.783C185.852 81.2378 184.946 80.338 184.939 78.3938C184.939 72.194 184.939 65.9963 184.939 59.8007C184.939 57.9131 185.764 57.0259 187.62 57.0007C192.138 56.9588 196.657 56.9588 201.179 57.0007C202.696 57.0007 203.501 58.0075 203.205 59.3414C203.141 59.6904 202.967 60.01 202.709 60.2542C202.451 60.4983 202.123 60.6546 201.771 60.7004C201.356 60.7752 200.934 60.809 200.512 60.8011H189.923V60.8137Z" fill="#00A3FF"/>
<path d="M216.249 56.5165C218.179 56.4819 220.086 56.9433 221.786 57.8567C222.523 58.2374 223.173 58.7666 223.695 59.411C224.217 60.0553 224.599 60.8008 224.819 61.6005C225.178 63.0539 224.542 64.3627 223.328 64.7465C222.931 64.8889 222.498 64.8945 222.098 64.7622C221.697 64.6299 221.353 64.3674 221.119 64.0166C220.779 63.5322 220.49 62.9973 220.207 62.4814C219.814 61.8623 219.294 61.3332 218.683 60.9289C218.071 60.5246 217.381 60.2542 216.657 60.1354C215.933 60.0165 215.193 60.052 214.484 60.2394C213.775 60.4269 213.114 60.762 212.543 61.223C212.282 61.4207 212.071 61.6761 211.925 61.9692C211.78 62.2623 211.704 62.5851 211.704 62.9124C211.704 63.2396 211.78 63.5624 211.925 63.8555C212.071 64.1486 212.282 64.404 212.543 64.6018C213.3 65.1215 214.134 65.5166 215.016 65.7721C216.86 66.3573 218.741 66.8229 220.597 67.364C221.101 67.5268 221.593 67.7244 222.069 67.9555C226.392 69.8431 226.549 74.2476 225.291 77.0727C224.904 77.9475 224.342 78.7337 223.64 79.383C222.938 80.0323 222.11 80.5309 221.207 80.8479C218.16 82.0546 214.775 82.0949 211.7 80.9612C210.382 80.551 209.207 79.773 208.316 78.7186C207.424 77.6642 206.852 76.3772 206.666 75.0089C206.558 74.4948 206.64 73.9587 206.898 73.5011C207.157 73.0436 207.573 72.696 208.069 72.5235C208.57 72.3281 209.126 72.3329 209.623 72.5368C210.119 72.7406 210.519 73.128 210.737 73.6184C211.02 74.1154 211.216 74.6565 211.461 75.1725C212.946 78.3185 217.552 79.1428 220.087 76.7392C220.439 76.4409 220.713 76.0615 220.885 75.6338C221.058 75.206 221.124 74.7428 221.077 74.2839C221.031 73.8251 220.873 73.3844 220.619 72.9999C220.364 72.6154 220.02 72.2986 219.615 72.0768C218.36 71.5065 217.057 71.0476 215.721 70.7051C213.94 70.223 212.194 69.6239 210.492 68.9119C206.245 66.8292 206.452 61.9906 208.384 59.5807C209.698 58.0643 211.527 57.089 213.518 56.8437C214.45 56.6423 215.356 56.6045 216.249 56.5165Z" fill="#00A3FF"/>
<path d="M179.497 69.0691C179.497 72.1312 179.497 75.1955 179.497 78.2618C179.508 78.6148 179.493 78.9681 179.453 79.3189C179.22 80.98 178.283 81.7602 176.678 81.6532C175.42 81.5652 174.539 80.3948 174.539 78.9162C174.539 72.5906 174.539 66.2712 174.539 59.9582C174.532 59.4733 174.57 58.9889 174.652 58.511C174.762 57.9651 175.057 57.4741 175.488 57.1213C175.918 56.7685 176.458 56.5757 177.015 56.5757C177.572 56.5757 178.111 56.7685 178.542 57.1213C178.973 57.4741 179.268 57.9651 179.377 58.511C179.464 58.9864 179.506 59.4687 179.503 59.9519C179.503 62.9847 179.497 66.03 179.497 69.0691Z" fill="#00A3FF"/>
<path d="M120.855 35.1484V25.9053C120.855 24.1624 121.698 23.1683 123.441 23.1557C126.587 23.1557 129.733 23.0865 132.879 23.3004C136.761 23.5647 139.297 25.8613 140.618 29.3974C142.05 33.1715 142.05 37.3392 140.618 41.1133C139.127 45.1591 136.044 47.1977 131.765 47.3424C129.009 47.4368 126.254 47.3928 123.498 47.3424C121.793 47.3424 120.949 46.5622 120.912 44.8256C120.842 41.5915 120.912 38.3511 120.912 35.1107L120.855 35.1484ZM125.845 26.8932V43.4162H130.564C133.219 43.4162 134.968 42.2585 135.855 39.7605C136.868 36.8883 136.912 33.7633 135.981 30.8635C135.396 28.9759 134.094 27.6042 132.074 27.3462C130.054 27.0882 127.965 27.0379 125.845 26.8932Z" fill="#00A3FF"/>
<path d="M184.713 26.9434V32.8265H194.491C194.886 32.8243 195.28 32.8601 195.668 32.9334C196.102 32.9871 196.497 33.2091 196.769 33.5515C197.041 33.894 197.168 34.3296 197.121 34.7644C197.138 35.2007 196.985 35.6264 196.696 35.9532C196.406 36.2801 196.002 36.483 195.567 36.5199C195.198 36.5704 194.826 36.5956 194.454 36.5954H184.776V43.416H195.605C196.027 43.4196 196.447 43.4553 196.863 43.523C197.343 43.5678 197.785 43.7995 198.095 44.1681C198.405 44.5367 198.557 45.0125 198.518 45.4924C198.512 45.9605 198.332 46.4096 198.014 46.7526C197.695 47.0956 197.261 47.3081 196.794 47.3486C196.575 47.3749 196.354 47.3854 196.134 47.38C191.641 47.38 187.142 47.38 182.643 47.38C180.756 47.38 179.812 46.4929 179.806 44.599C179.806 38.3614 179.806 32.1218 179.806 25.88C179.806 24.0931 180.636 23.1744 182.411 23.1555C186.972 23.1052 191.54 23.1115 196.102 23.1555C197.549 23.1555 198.311 24.1308 198.078 25.427C198.024 25.7906 197.852 26.1267 197.59 26.3844C197.328 26.6421 196.989 26.8074 196.624 26.8553C196.234 26.9216 195.838 26.9531 195.441 26.9497H184.713V26.9434Z" fill="#00A3FF"/>
<path d="M165.579 42.0572C165.749 41.5727 165.893 41.1888 166.026 40.7987C167.875 35.3456 169.723 29.8925 171.569 24.4393C172.066 22.9733 173.205 22.363 174.545 22.8034C174.847 22.8981 175.127 23.0547 175.365 23.2633C175.604 23.4719 175.797 23.7278 175.931 24.0148C176.065 24.3018 176.138 24.6137 176.146 24.9305C176.153 25.2473 176.094 25.5622 175.973 25.8551C174.885 29.0011 173.733 32.1031 172.588 35.2177C171.443 38.3322 170.26 41.5097 169.084 44.6558C168.898 45.128 168.688 45.5901 168.454 46.0401C167.265 48.3933 163.565 48.3681 162.502 46.0401C161.709 44.3286 161.074 42.5417 160.413 40.7736C158.693 36.1342 156.994 31.4907 155.316 26.8429C155.092 26.2083 154.956 25.5455 154.914 24.8735C154.892 24.3848 155.042 23.9039 155.339 23.515C155.636 23.1261 156.06 22.8542 156.537 22.7468C157.858 22.4951 158.783 22.709 159.236 23.7787C159.866 25.1944 160.356 26.6479 160.854 28.1013C162.37 32.5058 163.855 36.9732 165.352 41.4091C165.415 41.623 165.478 41.7866 165.579 42.0572Z" fill="#00A3FF"/>
<path d="M151.031 35.2993C151.031 38.5586 151.031 41.8116 151.031 45.0646C151.031 46.776 149.974 47.8205 148.313 47.7576C147.814 47.7311 147.338 47.5392 146.96 47.2123C146.581 46.8854 146.323 46.4419 146.224 45.9518C146.121 45.4785 146.07 44.9953 146.073 44.5109C146.073 38.3153 146.073 32.1218 146.073 25.9304C146.077 25.4675 146.126 25.006 146.218 24.5524C146.315 24.0039 146.609 23.5096 147.045 23.1622C147.48 22.8147 148.027 22.6379 148.584 22.6648C149.142 22.6526 149.685 22.8418 150.115 23.1977C150.545 23.5536 150.832 24.0524 150.925 24.6028C151.006 25.0595 151.044 25.523 151.038 25.987C151.038 29.0953 151.038 32.1973 151.038 35.3056L151.031 35.2993Z" fill="#00A3FF"/>
<path d="M134.666 89.7314C134.327 90.7186 133.997 91.7015 133.653 92.6757C133.218 93.8542 132.783 95.0284 132.374 96.2113C132.313 96.3896 132.222 96.481 132.035 96.4418C131.848 96.4027 131.535 96.5897 131.418 96.22C130.748 94.1151 130.065 92.019 129.387 89.9184C129.365 89.8577 129.341 89.7982 129.313 89.7401C129.313 89.9054 129.278 89.988 129.274 90.0706C129.169 92.1103 129.06 94.1499 128.96 96.1896C128.96 96.3896 128.9 96.507 128.665 96.4853C128.43 96.4635 128.23 96.4853 127.938 96.4853L128.491 88.5529C128.926 88.5529 129.313 88.5529 129.717 88.5529C129.774 88.5529 129.848 88.6573 129.874 88.7268C130.543 90.7128 131.209 92.7017 131.87 94.6935C131.9 94.7762 131.922 94.8588 131.957 94.9762C132.248 94.1064 132.505 93.2367 132.796 92.4191C133.231 91.2014 133.666 89.9924 134.127 88.779C134.134 88.7407 134.148 88.7042 134.169 88.6714C134.19 88.6387 134.217 88.6104 134.249 88.5882C134.281 88.566 134.317 88.5503 134.355 88.542C134.393 88.5337 134.432 88.5329 134.471 88.5398C134.818 88.5398 135.166 88.5398 135.545 88.5398C135.71 91.184 135.871 93.802 136.036 96.4462H135.001L134.666 89.7314Z" fill="black"/>
<path d="M165.261 94.9066C165.987 92.8801 166.722 90.8404 167.435 88.8182C167.45 88.7359 167.497 88.6628 167.565 88.6148C167.634 88.5668 167.718 88.5476 167.8 88.5616C168.135 88.5833 168.475 88.5616 168.857 88.5616C169.023 91.197 169.183 93.815 169.349 96.4635H168.318C168.205 94.2282 168.092 91.9972 167.979 89.801C167.2 91.9755 166.409 94.2195 165.617 96.4374C164.843 96.4853 164.835 96.4896 164.608 95.8199C163.939 93.8368 163.273 91.8493 162.612 89.8575C162.612 89.9445 162.59 90.062 162.586 90.175C162.479 92.2045 162.375 94.2239 162.273 96.2331C162.273 96.4201 162.199 96.5027 162.003 96.494C161.808 96.4853 161.529 96.494 161.255 96.494C161.438 93.8455 161.621 91.2275 161.808 88.5659C162.216 88.5659 162.625 88.5659 163.025 88.5659C163.082 88.5659 163.165 88.6703 163.186 88.7399C163.862 90.7346 164.53 92.7322 165.191 94.7327C165.23 94.8023 165.252 94.8762 165.261 94.9066Z" fill="black"/>
<path d="M137.223 93.6369C137.223 92.1974 137.975 91.1101 139.202 90.7709C139.607 90.6352 140.038 90.5971 140.46 90.6596C140.882 90.7221 141.284 90.8835 141.632 91.1307C141.98 91.3778 142.265 91.7038 142.463 92.0818C142.661 92.4599 142.767 92.8795 142.772 93.3063C142.838 93.7786 142.789 94.2596 142.63 94.709C142.471 95.1585 142.207 95.5633 141.859 95.8896C141.463 96.2607 140.965 96.5058 140.43 96.5941C139.894 96.6823 139.344 96.6097 138.85 96.3854C137.784 95.9505 137.323 95.0807 137.223 93.9674C137.214 93.8587 137.223 93.7456 137.223 93.6369ZM138.293 93.6934C138.277 94.1806 138.409 94.6612 138.671 95.072C138.807 95.2961 138.999 95.4814 139.227 95.6099C139.456 95.7385 139.714 95.8061 139.976 95.8061C140.238 95.8061 140.496 95.7385 140.724 95.6099C140.953 95.4814 141.145 95.2961 141.281 95.072C141.57 94.6484 141.728 94.1491 141.735 93.6362C141.742 93.1234 141.597 92.6199 141.32 92.1887C141.186 91.9555 140.994 91.7612 140.762 91.6253C140.531 91.4894 140.267 91.4165 139.999 91.4138C139.73 91.4112 139.465 91.4789 139.231 91.6103C138.997 91.7416 138.801 91.932 138.663 92.1626C138.382 92.6214 138.252 93.157 138.293 93.6934Z" fill="black"/>
<path d="M176.103 93.5933C176.132 94.0334 176.06 94.4743 175.891 94.8817C175.722 95.289 175.461 95.6518 175.129 95.9417C174.728 96.293 174.235 96.5209 173.708 96.5981C173.181 96.6752 172.643 96.5983 172.158 96.3766C171.11 95.9417 170.645 95.072 170.554 93.976C170.472 93.2874 170.614 92.5907 170.958 91.9886C171.275 91.4635 171.756 91.0575 172.327 90.8334C172.897 90.6093 173.526 90.5797 174.115 90.7491C174.683 90.9003 175.185 91.2346 175.544 91.7C175.902 92.1655 176.097 92.7362 176.098 93.3237C176.103 93.415 176.103 93.502 176.103 93.5933ZM175.037 93.6325C175.039 93.1521 174.922 92.6787 174.698 92.2539C174.562 92.0123 174.364 91.8113 174.124 91.6714C173.885 91.5316 173.612 91.4579 173.335 91.4579C173.057 91.4579 172.785 91.5316 172.545 91.6714C172.306 91.8113 172.108 92.0123 171.971 92.2539C171.715 92.6801 171.582 93.1691 171.586 93.6666C171.591 94.1641 171.733 94.6505 171.997 95.072C172.128 95.2999 172.316 95.4901 172.542 95.6241C172.768 95.758 173.025 95.8312 173.287 95.8365C173.55 95.8417 173.81 95.7789 174.041 95.6541C174.272 95.5292 174.467 95.3467 174.607 95.1242C174.904 94.6846 175.054 94.1626 175.037 93.6325Z" fill="black"/>
<path d="M177.007 93.6588C177.007 92.2106 177.747 91.1234 178.969 90.7711C179.375 90.6327 179.809 90.5929 180.234 90.6549C180.66 90.7169 181.064 90.8789 181.414 91.1278C181.765 91.3766 182.051 91.7051 182.249 92.0861C182.448 92.4672 182.553 92.8899 182.557 93.3196C182.62 93.7863 182.572 94.2614 182.416 94.7059C182.26 95.1504 182.001 95.5517 181.661 95.8768C181.265 96.2506 180.768 96.4988 180.231 96.5901C179.695 96.6815 179.144 96.6118 178.647 96.3899C177.573 95.955 177.103 95.0853 177.007 93.9545C176.999 93.8589 177.007 93.7588 177.007 93.6588ZM178.077 93.6588H177.999C178.09 94.0807 178.214 94.4951 178.368 94.8982C178.486 95.1576 178.673 95.3795 178.909 95.5393C179.144 95.6991 179.42 95.7905 179.704 95.8036C179.989 95.8167 180.271 95.7508 180.52 95.6133C180.77 95.4757 180.976 95.2719 181.117 95.0244C181.377 94.602 181.515 94.1157 181.515 93.6197C181.515 93.1236 181.377 92.6373 181.117 92.215C180.984 91.9786 180.792 91.7813 180.558 91.643C180.325 91.5048 180.06 91.4303 179.789 91.4272C179.517 91.4242 179.25 91.4925 179.014 91.6255C178.778 91.7584 178.581 91.9512 178.442 92.1845C178.174 92.6211 178.046 93.1298 178.077 93.6414V93.6588Z" fill="black"/>
<path d="M143.686 93.667C143.686 92.2754 144.347 91.2229 145.491 90.8228C147.596 90.0879 149.5 91.6926 149.218 93.9627C149.035 95.4675 148.174 96.3938 146.791 96.5721C146.416 96.6335 146.031 96.6142 145.664 96.5153C145.297 96.4164 144.955 96.2403 144.661 95.9986C144.367 95.757 144.128 95.4555 143.96 95.1142C143.792 94.7728 143.698 94.3995 143.686 94.0193C143.677 93.9062 143.686 93.8062 143.686 93.667ZM144.678 93.667H144.751C144.726 94.1575 144.854 94.6437 145.117 95.0587C145.25 95.2918 145.443 95.4855 145.676 95.6202C145.908 95.7549 146.172 95.8259 146.441 95.8259C146.71 95.8259 146.974 95.7549 147.206 95.6202C147.439 95.4855 147.632 95.2918 147.765 95.0587C148.03 94.6453 148.176 94.167 148.188 93.6762C148.199 93.1853 148.076 92.7007 147.83 92.2754C147.701 92.0022 147.489 91.7766 147.225 91.63C146.96 91.4833 146.657 91.4231 146.356 91.4578C146.06 91.4635 145.772 91.5587 145.53 91.731C145.289 91.9033 145.105 92.1447 145.004 92.4232C144.866 92.8223 144.757 93.2307 144.678 93.6453V93.667Z" fill="black"/>
<path d="M156.215 92.8629C156.328 92.0496 155.963 91.5582 155.211 91.4538C154.612 91.3974 154.012 91.5346 153.497 91.8452L153.254 91.1625C153.913 90.7566 154.69 90.585 155.459 90.6754C155.935 90.6788 156.392 90.8694 156.729 91.2062C157.067 91.543 157.259 91.999 157.263 92.4758C157.316 92.9716 157.307 93.4717 157.316 93.9675C157.316 94.4024 157.316 94.8069 157.316 95.2243V96.4638H156.446L156.341 95.8419C156.105 96.0328 155.856 96.2086 155.598 96.3681C155.333 96.5115 155.041 96.5959 154.74 96.6154C154.44 96.6349 154.139 96.5891 153.858 96.4812C153.591 96.3636 153.358 96.1796 153.181 95.9467C153.005 95.7137 152.891 95.4395 152.851 95.1501C152.81 94.8608 152.844 94.5659 152.95 94.2934C153.055 94.021 153.229 93.78 153.454 93.5935C154.089 93.1182 154.861 92.8632 155.654 92.8672C155.841 92.8498 156.02 92.8629 156.215 92.8629ZM156.25 93.5196C155.733 93.6022 155.241 93.6587 154.763 93.7762C154.545 93.8422 154.348 93.9618 154.189 94.1241C154.073 94.2411 153.988 94.3843 153.94 94.5415C153.892 94.6987 153.882 94.8653 153.913 95.0268C153.943 95.1884 154.012 95.3402 154.114 95.4693C154.216 95.5984 154.347 95.7008 154.497 95.768C154.675 95.8221 154.862 95.8398 155.047 95.82C155.232 95.8002 155.411 95.7433 155.573 95.6528C155.736 95.5623 155.878 95.4399 155.992 95.2931C156.106 95.1462 156.19 94.9779 156.237 94.7982C156.272 94.3728 156.277 93.9455 156.25 93.5196Z" fill="black"/>
<path d="M190.685 96.4593C190.648 96.4618 190.612 96.4618 190.576 96.4593C190.337 96.4593 190.05 96.5333 189.876 96.4289C189.702 96.3245 189.715 96.0288 189.636 95.8026C189.258 96.2387 188.728 96.5152 188.153 96.5767C187.778 96.6357 187.394 96.5703 187.06 96.3905C186.725 96.2107 186.459 95.9263 186.301 95.5808C186.162 95.2257 186.139 94.8355 186.236 94.4666C186.333 94.0977 186.544 93.769 186.84 93.5281C187.477 93.0809 188.236 92.841 189.015 92.841C189.189 92.841 189.367 92.841 189.536 92.841C189.58 92.6829 189.588 92.5172 189.56 92.3556C189.532 92.1941 189.469 92.0406 189.375 91.9062C189.281 91.7717 189.159 91.6595 189.017 91.5776C188.875 91.4956 188.717 91.4459 188.554 91.432C188.066 91.3624 187.645 91.432 186.814 91.8147L186.583 91.1276C187.018 90.8655 187.504 90.7027 188.009 90.6509C188.513 90.599 189.023 90.6593 189.502 90.8275C189.733 90.9119 189.941 91.0508 190.108 91.2325C190.274 91.4141 190.394 91.6332 190.458 91.8712C190.555 92.1952 190.614 92.5295 190.632 92.8671C190.671 94.0196 190.68 95.1764 190.702 96.3463C190.699 96.3843 190.693 96.4221 190.685 96.4593ZM189.606 93.5803C189.058 93.5445 188.509 93.623 187.993 93.8108C187.808 93.8847 187.641 93.9957 187.501 94.137C187.387 94.2579 187.305 94.4048 187.261 94.5649C187.216 94.7251 187.212 94.8936 187.248 95.0557C187.284 95.2179 187.359 95.3687 187.467 95.4951C187.575 95.6215 187.712 95.7196 187.866 95.7809C188.055 95.8343 188.252 95.8472 188.445 95.8185C188.639 95.7898 188.824 95.7203 188.988 95.6146C189.153 95.5089 189.293 95.3694 189.4 95.2054C189.506 95.0413 189.576 94.8565 189.606 94.6632C189.628 94.3026 189.628 93.9409 189.606 93.5803Z" fill="black"/>
<path d="M151.553 96.4853C151.279 96.4853 151.031 96.4853 150.783 96.4853C150.535 96.4853 150.518 96.4027 150.518 96.2027C150.518 95.1589 150.518 94.1108 150.518 93.0627V88.1528H151.549L151.553 96.4853Z" fill="black"/>
<path d="M183.853 88.1528H184.105H184.883V96.5028C184.596 96.5028 184.296 96.5028 184.013 96.5028C183.961 96.5028 183.9 96.4158 183.874 96.3549C183.863 96.296 183.863 96.2355 183.874 96.1766V88.1528H183.853Z" fill="black"/>
<defs>
<filter id="filter0_d_427_5146" x="0" y="0" width="79.9102" height="127.808" filterUnits="userSpaceOnUse" color-interpolation-filters="sRGB">
<feFlood flood-opacity="0" result="BackgroundImageFix"/>
<feColorMatrix in="SourceAlpha" type="matrix" values="0 0 0 0 0 0 0 0 0 0 0 0 0 0 0 0 0 0 127 0" result="hardAlpha"/>
<feOffset dy="4"/>
<feGaussianBlur stdDeviation="2"/>
<feComposite in2="hardAlpha" operator="out"/>
<feColorMatrix type="matrix" values="0 0 0 0 0 0 0 0 0 0 0 0 0 0 0 0 0 0 0.25 0"/>
<feBlend mode="normal" in2="BackgroundImageFix" result="effect1_dropShadow_427_5146"/>
<feBlend mode="normal" in="SourceGraphic" in2="effect1_dropShadow_427_5146" result="shape"/>
</filter>
<linearGradient id="paint0_linear_427_5146" x1="44.2163" y1="0.0254551" x2="44.2163" y2="72.4787" gradientUnits="userSpaceOnUse">
<stop offset="0.09" stop-color="#FC67F7"/>
<stop offset="0.49" stop-color="#FB4BF4"/>
<stop offset="0.84" stop-color="#993399"/>
</linearGradient>
<linearGradient id="paint1_linear_427_5146" x1="35.7093" y1="47.3484" x2="35.7093" y2="119.802" gradientUnits="userSpaceOnUse">
<stop stop-color="#458499"/>
<stop offset="0.57" stop-color="#5768D7"/>
<stop offset="0.98" stop-color="#7D88DD"/>
</linearGradient>
</defs>
</svg>
