<svg width="70" height="70" viewBox="0 0 70 70" fill="none" xmlns="http://www.w3.org/2000/svg">
<circle cx="35" cy="35" r="35" fill="white"/>
<path d="M44.8135 38.26C44.274 37.3027 43.5438 36.4662 42.668 35.8024C41.7923 35.1386 40.7897 34.6616 39.7222 34.4008C38.7206 34.1003 37.704 33.852 36.6767 33.6569V23.1139C38.7192 23.333 40.6677 24.0868 42.326 25.2992C42.4404 25.4007 42.5738 25.4787 42.7184 25.5287C42.863 25.5786 43.0161 25.5996 43.1688 25.5905C43.3215 25.5813 43.471 25.5421 43.6086 25.4752C43.7462 25.4083 43.8692 25.3149 43.9708 25.2004C44.0723 25.0859 44.1502 24.9526 44.2002 24.8079C44.2502 24.6633 44.2712 24.5103 44.262 24.3575C44.2528 24.2048 44.2137 24.0554 44.1467 23.9178C44.0798 23.7802 43.9864 23.6571 43.8719 23.5556C41.7916 21.9534 39.2934 20.9848 36.6767 20.7658V17.1624C36.6767 16.8541 36.5542 16.5585 36.3362 16.3405C36.1182 16.1225 35.8226 16 35.5143 16C35.206 16 34.9103 16.1225 34.6923 16.3405C34.4743 16.5585 34.3519 16.8541 34.3519 17.1624V20.6496C29.2373 20.7658 26.4127 23.3115 25.5525 25.5084C24.9787 26.9231 24.9241 28.4953 25.3986 29.9463C25.8731 31.3974 26.8459 32.6336 28.1447 33.436C30.0352 34.5885 32.1527 35.3181 34.3519 35.5748V46.2224C31.3172 46.0697 28.4101 44.9541 26.0523 43.0375C25.9471 42.9122 25.8166 42.8106 25.6695 42.7393C25.5223 42.6679 25.3617 42.6285 25.1982 42.6234C25.0348 42.6184 24.872 42.6479 24.7208 42.71C24.5695 42.7722 24.433 42.8655 24.3202 42.984C24.2075 43.1025 24.121 43.2435 24.0665 43.3977C24.012 43.5519 23.9906 43.7159 24.0038 43.8789C24.017 44.0419 24.0644 44.2003 24.143 44.3438C24.2216 44.4872 24.3295 44.6125 24.4598 44.7113C27.2402 47.0521 30.7202 48.4016 34.3519 48.5472V52.0345C34.3519 52.3427 34.4743 52.6384 34.6923 52.8564C34.9103 53.0744 35.206 53.1969 35.5143 53.1969C35.8226 53.1969 36.1182 53.0744 36.3362 52.8564C36.5542 52.6384 36.6767 52.3427 36.6767 52.0345V48.5472C39.9547 48.3264 43.7325 47.2802 45.1622 43.0142C45.4209 42.238 45.5233 41.4182 45.4634 40.6022C45.4035 39.7862 45.1827 38.9902 44.8135 38.26ZM29.4582 31.4832C28.6094 30.9779 27.9687 30.1865 27.6512 29.2511C27.3337 28.3157 27.3603 27.2978 27.7262 26.3802C27.8541 26.0315 29.1559 23.1139 34.3519 22.9744V33.2035C32.6179 32.9804 30.9504 32.3942 29.4582 31.4832ZM42.9536 42.2238C42.1167 44.7113 40.2569 45.9086 36.6767 46.1759V36.0282C37.4206 36.1909 38.1878 36.3769 39.0015 36.621C39.7701 36.7956 40.4952 37.1247 41.1327 37.5883C41.7701 38.0519 42.3066 38.6403 42.7095 39.3178C43.1654 40.2179 43.253 41.2602 42.9536 42.2238Z" fill="#00A3FF"/>
</svg>
