<svg width="70" height="70" viewBox="0 0 70 70" fill="none" xmlns="http://www.w3.org/2000/svg">
<circle cx="35" cy="35" r="35" fill="white"/>
<path d="M23.1451 26.2902C24.8821 26.2902 26.2902 24.8821 26.2902 23.1451C26.2902 21.4081 24.8821 20 23.1451 20C21.4081 20 20 21.4081 20 23.1451C20 24.8821 21.4081 26.2902 23.1451 26.2902Z" stroke="#00A3FF" stroke-width="2.5" stroke-linecap="round" stroke-linejoin="round"/>
<path d="M23.1451 49.9997C24.8821 49.9997 26.2902 48.5916 26.2902 46.8546C26.2902 45.1176 24.8821 43.7095 23.1451 43.7095C21.4081 43.7095 20 45.1176 20 46.8546C20 48.5916 21.4081 49.9997 23.1451 49.9997Z" stroke="#00A3FF" stroke-width="2.5" stroke-linecap="round" stroke-linejoin="round"/>
<path d="M23.1451 38.1452C24.8821 38.1452 26.2902 36.7371 26.2902 35.0001C26.2902 33.2631 24.8821 31.855 23.1451 31.855C21.4081 31.855 20 33.2631 20 35.0001C20 36.7371 21.4081 38.1452 23.1451 38.1452Z" stroke="#00A3FF" stroke-width="2.5" stroke-linecap="round" stroke-linejoin="round"/>
<path d="M48.5485 20H31.1293C30.3276 20 29.6777 20.6499 29.6777 21.4516V24.8387C29.6777 25.6404 30.3276 26.2903 31.1293 26.2903H48.5485C49.3502 26.2903 50.0001 25.6404 50.0001 24.8387V21.4516C50.0001 20.6499 49.3502 20 48.5485 20Z" stroke="#00A3FF" stroke-width="2.5" stroke-linecap="round" stroke-linejoin="round"/>
<path d="M48.5485 43.7095H31.1293C30.3276 43.7095 29.6777 44.3594 29.6777 45.161V48.5482C29.6777 49.3499 30.3276 49.9997 31.1293 49.9997H48.5485C49.3502 49.9997 50.0001 49.3499 50.0001 48.5482V45.161C50.0001 44.3594 49.3502 43.7095 48.5485 43.7095Z" stroke="#00A3FF" stroke-width="2.5" stroke-linecap="round" stroke-linejoin="round"/>
<path d="M48.5485 31.855H31.1293C30.3276 31.855 29.6777 32.5049 29.6777 33.3066V36.6937C29.6777 37.4954 30.3276 38.1453 31.1293 38.1453H48.5485C49.3502 38.1453 50.0001 37.4954 50.0001 36.6937V33.3066C50.0001 32.5049 49.3502 31.855 48.5485 31.855Z" stroke="#00A3FF" stroke-width="2.5" stroke-linecap="round" stroke-linejoin="round"/>
</svg>
