<svg width="70" height="70" viewBox="0 0 70 70" fill="none" xmlns="http://www.w3.org/2000/svg">
<circle cx="35" cy="35" r="35" fill="white"/>
<path d="M42.4125 45.875L47.625 40.7L46.05 39.125L42.4125 42.6875L40.95 41.225L39.375 42.8375L42.4125 45.875ZM25.5 29H43.5V26H25.5V29ZM43.5 50C41.425 50 39.656 49.2685 38.193 47.8055C36.73 46.3425 35.999 44.574 36 42.5C36 40.425 36.7315 38.656 38.1945 37.193C39.6575 35.73 41.426 34.999 43.5 35C45.575 35 47.344 35.7315 48.807 37.1945C50.27 38.6575 51.001 40.426 51 42.5C51 44.575 50.2685 46.344 48.8055 47.807C47.3425 49.27 45.574 50.001 43.5 50ZM21 48.5V23C21 22.175 21.294 21.4685 21.882 20.8805C22.47 20.2925 23.176 19.999 24 20H45C45.825 20 46.5315 20.294 47.1195 20.882C47.7075 21.47 48.001 22.176 48 23V33.0125C47.525 32.7875 47.0375 32.6 46.5375 32.45C46.0375 32.3 45.525 32.1875 45 32.1125V23H24V44.075H33.1125C33.2375 44.85 33.4315 45.5875 33.6945 46.2875C33.9575 46.9875 34.301 47.65 34.725 48.275L34.5 48.5L32.25 46.25L30 48.5L27.75 46.25L25.5 48.5L23.25 46.25L21 48.5ZM25.5 41H33.1125C33.1875 40.475 33.3 39.9625 33.45 39.4625C33.6 38.9625 33.7875 38.475 34.0125 38H25.5V41ZM25.5 35H36.15C37.1 34.075 38.2065 33.3435 39.4695 32.8055C40.7325 32.2675 42.076 31.999 43.5 32H25.5V35Z" fill="#00A3FF"/>
</svg>
