<svg width="70" height="70" viewBox="0 0 70 70" fill="none" xmlns="http://www.w3.org/2000/svg">
<circle cx="35.0005" cy="35" r="35" fill="white"/>
<path d="M15.0005 48.25C15.0005 46.2609 15.7907 44.3532 17.1972 42.9467C18.6037 41.5402 20.5114 40.75 22.5005 40.75H37.5005C39.4896 40.75 41.3973 41.5402 42.8038 42.9467C44.2103 44.3532 45.0005 46.2609 45.0005 48.25C45.0005 49.2446 44.6054 50.1984 43.9021 50.9016C43.1989 51.6049 42.2451 52 41.2505 52H18.7505C17.7559 52 16.8021 51.6049 16.0988 50.9016C15.3956 50.1984 15.0005 49.2446 15.0005 48.25Z" stroke="#00A3FF" stroke-width="1.5" stroke-linejoin="round"/>
<path d="M30.0005 33.25C33.1071 33.25 35.6255 30.7316 35.6255 27.625C35.6255 24.5184 33.1071 22 30.0005 22C26.8939 22 24.3755 24.5184 24.3755 27.625C24.3755 30.7316 26.8939 33.25 30.0005 33.25Z" stroke="#00A3FF" stroke-width="1.5"/>
<path d="M30.0005 43.875C30.0005 42.2174 30.659 40.6277 31.8311 39.4556C33.0032 38.2835 34.5929 37.625 36.2505 37.625H48.7505C50.4081 37.625 51.9978 38.2835 53.1699 39.4556C54.342 40.6277 55.0005 42.2174 55.0005 43.875C55.0005 44.7038 54.6712 45.4987 54.0852 46.0847C53.4991 46.6708 52.7043 47 51.8755 47H33.1255C32.2967 47 31.5018 46.6708 30.9158 46.0847C30.3297 45.4987 30.0005 44.7038 30.0005 43.875Z" stroke="#00A3FF" stroke-width="1.5" stroke-linejoin="round"/>
<path d="M42.5005 31.375C45.0893 31.375 47.188 29.2763 47.188 26.6875C47.188 24.0987 45.0893 22 42.5005 22C39.9117 22 37.813 24.0987 37.813 26.6875C37.813 29.2763 39.9117 31.375 42.5005 31.375Z" stroke="#00A3FF" stroke-width="1.5"/>
</svg>
