<svg width="34" height="35" viewBox="0 0 19 19" fill="none" xmlns="http://www.w3.org/2000/svg">
<path d="M9.5002 6.09961V9.78221M10.0922 13.1923L11.9281 10.887C11.9999 10.7842 12.0413 10.668 12.0489 10.5484C12.0565 10.4288 12.03 10.3093 11.9717 10.2005C11.9134 10.0917 11.825 9.99668 11.7143 9.92379C11.6035 9.8509 11.4737 9.8023 11.3361 9.78221H7.66425C7.52667 9.8023 7.39688 9.8509 7.28614 9.92379C7.17539 9.99668 7.08702 10.0917 7.0287 10.2005C6.97038 10.3093 6.94387 10.4288 6.95147 10.5484C6.95906 10.668 7.00053 10.7842 7.07228 10.887L8.90823 13.1849C8.97119 13.2705 9.05818 13.3411 9.1612 13.3902C9.26423 13.4394 9.37999 13.4655 9.49785 13.4663C9.61572 13.467 9.7319 13.4423 9.83575 13.3944C9.93959 13.3466 10.0278 13.2771 10.0922 13.1923Z" stroke="#3D405B" stroke-width="2" stroke-linecap="round" stroke-linejoin="round"/>
<path d="M9.5 18C14.1944 18 18 14.1944 18 9.5C18 4.80558 14.1944 1 9.5 1C4.80558 1 1 4.80558 1 9.5C1 14.1944 4.80558 18 9.5 18Z" stroke="#3D405B" stroke-width="2" stroke-linecap="round" stroke-linejoin="round"/>
</svg>
