<svg width="36" height="36" viewBox="0 0 36 36" fill="none" xmlns="http://www.w3.org/2000/svg">
<circle opacity="0.1" cx="18" cy="18" r="18" fill="#233A85"/>
<path fill-rule="evenodd" clip-rule="evenodd" d="M16.1637 23.6195L22.3141 15.6658C22.6484 15.2368 22.7673 14.741 22.6558 14.236C22.5593 13.777 22.277 13.3406 21.8536 13.0095L20.8211 12.1893C19.9223 11.4744 18.8081 11.5497 18.1693 12.3699L17.4784 13.2661C17.3893 13.3782 17.4116 13.5438 17.523 13.6341C17.523 13.6341 19.2686 15.0337 19.3058 15.0638C19.4246 15.1766 19.5137 15.3271 19.536 15.5077C19.5732 15.8614 19.328 16.1925 18.9641 16.2376C18.7932 16.2602 18.6298 16.2075 18.511 16.1097L16.6762 14.6499C16.5871 14.5829 16.4534 14.5972 16.3791 14.6875L12.0188 20.3311C11.7365 20.6848 11.64 21.1438 11.7365 21.5878L12.2936 24.0032C12.3233 24.1312 12.4348 24.2215 12.5685 24.2215L15.0197 24.1914C15.4654 24.1838 15.8814 23.9807 16.1637 23.6195ZM19.5957 22.8673H23.5928C23.9828 22.8673 24.2999 23.1886 24.2999 23.5837C24.2999 23.9795 23.9828 24.3 23.5928 24.3H19.5957C19.2058 24.3 18.8886 23.9795 18.8886 23.5837C18.8886 23.1886 19.2058 22.8673 19.5957 22.8673Z" fill="#233A85"/>
</svg>
