<svg width="180" height="47" viewBox="0 0 180 47" fill="none" xmlns="http://www.w3.org/2000/svg">
<rect width="180" height="47" rx="5" fill="white"/>
<path d="M76.78 28.16H81.48V30H74.5V16.1H76.78V28.16ZM88.3667 30.18C87.3267 30.18 86.3867 29.9467 85.5467 29.48C84.7067 29 84.0467 28.3333 83.5667 27.48C83.0867 26.6133 82.8467 25.6133 82.8467 24.48C82.8467 23.36 83.0934 22.3667 83.5867 21.5C84.0801 20.6333 84.7534 19.9667 85.6067 19.5C86.4601 19.0333 87.4134 18.8 88.4667 18.8C89.5201 18.8 90.4734 19.0333 91.3267 19.5C92.1801 19.9667 92.8534 20.6333 93.3467 21.5C93.8401 22.3667 94.0867 23.36 94.0867 24.48C94.0867 25.6 93.8334 26.5933 93.3267 27.46C92.8201 28.3267 92.1267 29 91.2467 29.48C90.3801 29.9467 89.4201 30.18 88.3667 30.18ZM88.3667 28.2C88.9534 28.2 89.5001 28.06 90.0067 27.78C90.5267 27.5 90.9467 27.08 91.2667 26.52C91.5867 25.96 91.7467 25.28 91.7467 24.48C91.7467 23.68 91.5934 23.0067 91.2867 22.46C90.9801 21.9 90.5734 21.48 90.0667 21.2C89.5601 20.92 89.0134 20.78 88.4267 20.78C87.8401 20.78 87.2934 20.92 86.7867 21.2C86.2934 21.48 85.9001 21.9 85.6067 22.46C85.3134 23.0067 85.1667 23.68 85.1667 24.48C85.1667 25.6667 85.4667 26.5867 86.0667 27.24C86.6801 27.88 87.4467 28.2 88.3667 28.2ZM100.981 18.8C101.834 18.8 102.587 18.9733 103.241 19.32C103.907 19.6533 104.427 20.0733 104.801 20.58V18.98H107.101V30.18C107.101 31.1933 106.887 32.0933 106.461 32.88C106.034 33.68 105.414 34.3067 104.601 34.76C103.801 35.2133 102.841 35.44 101.721 35.44C100.227 35.44 98.9873 35.0867 98.0006 34.38C97.014 33.6867 96.454 32.74 96.3206 31.54H98.5806C98.754 32.1133 99.1206 32.5733 99.6806 32.92C100.254 33.28 100.934 33.46 101.721 33.46C102.641 33.46 103.381 33.18 103.941 32.62C104.514 32.06 104.801 31.2467 104.801 30.18V28.34C104.414 28.86 103.887 29.3 103.221 29.66C102.567 30.0067 101.821 30.18 100.981 30.18C100.021 30.18 99.1406 29.94 98.3406 29.46C97.554 28.9667 96.9273 28.2867 96.4606 27.42C96.0073 26.54 95.7806 25.5467 95.7806 24.44C95.7806 23.3333 96.0073 22.3533 96.4606 21.5C96.9273 20.6467 97.554 19.9867 98.3406 19.52C99.1406 19.04 100.021 18.8 100.981 18.8ZM104.801 24.48C104.801 23.72 104.641 23.06 104.321 22.5C104.014 21.94 103.607 21.5133 103.101 21.22C102.594 20.9267 102.047 20.78 101.461 20.78C100.874 20.78 100.327 20.9267 99.8206 21.22C99.314 21.5 98.9006 21.92 98.5806 22.48C98.274 23.0267 98.1206 23.68 98.1206 24.44C98.1206 25.2 98.274 25.8667 98.5806 26.44C98.9006 27.0133 99.314 27.4533 99.8206 27.76C100.341 28.0533 100.887 28.2 101.461 28.2C102.047 28.2 102.594 28.0533 103.101 27.76C103.607 27.4667 104.014 27.04 104.321 26.48C104.641 25.9067 104.801 25.24 104.801 24.48ZM115.075 30.18C114.035 30.18 113.095 29.9467 112.255 29.48C111.415 29 110.755 28.3333 110.275 27.48C109.795 26.6133 109.555 25.6133 109.555 24.48C109.555 23.36 109.802 22.3667 110.295 21.5C110.789 20.6333 111.462 19.9667 112.315 19.5C113.169 19.0333 114.122 18.8 115.175 18.8C116.229 18.8 117.182 19.0333 118.035 19.5C118.889 19.9667 119.562 20.6333 120.055 21.5C120.549 22.3667 120.795 23.36 120.795 24.48C120.795 25.6 120.542 26.5933 120.035 27.46C119.529 28.3267 118.835 29 117.955 29.48C117.089 29.9467 116.129 30.18 115.075 30.18ZM115.075 28.2C115.662 28.2 116.209 28.06 116.715 27.78C117.235 27.5 117.655 27.08 117.975 26.52C118.295 25.96 118.455 25.28 118.455 24.48C118.455 23.68 118.302 23.0067 117.995 22.46C117.689 21.9 117.282 21.48 116.775 21.2C116.269 20.92 115.722 20.78 115.135 20.78C114.549 20.78 114.002 20.92 113.495 21.2C113.002 21.48 112.609 21.9 112.315 22.46C112.022 23.0067 111.875 23.68 111.875 24.48C111.875 25.6667 112.175 26.5867 112.775 27.24C113.389 27.88 114.155 28.2 115.075 28.2ZM133.229 18.98V30H130.949V28.7C130.589 29.1533 130.116 29.5133 129.529 29.78C128.956 30.0333 128.343 30.16 127.689 30.16C126.823 30.16 126.043 29.98 125.349 29.62C124.669 29.26 124.129 28.7267 123.729 28.02C123.343 27.3133 123.149 26.46 123.149 25.46V18.98H125.409V25.12C125.409 26.1067 125.656 26.8667 126.149 27.4C126.643 27.92 127.316 28.18 128.169 28.18C129.023 28.18 129.696 27.92 130.189 27.4C130.696 26.8667 130.949 26.1067 130.949 25.12V18.98H133.229ZM139.098 20.84V26.94C139.098 27.3533 139.191 27.6533 139.378 27.84C139.578 28.0133 139.911 28.1 140.378 28.1H141.778V30H139.978C138.951 30 138.164 29.76 137.618 29.28C137.071 28.8 136.798 28.02 136.798 26.94V20.84H135.498V18.98H136.798V16.24H139.098V18.98H141.778V20.84H139.098Z" fill="#00A3FF"/>
<path d="M41.5455 23.1818H48.8182V25H41.5455V27.7273L37 24.0909L41.5455 20.4545V23.1818ZM40.6364 29.5455H43.0982C44.1479 30.4712 45.4424 31.0744 46.8265 31.2827C48.2105 31.4909 49.6252 31.2954 50.9009 30.7195C52.1766 30.1437 53.259 29.212 54.0182 28.0362C54.7775 26.8604 55.1814 25.4905 55.1814 24.0909C55.1814 22.6913 54.7775 21.3214 54.0182 20.1456C53.259 18.9698 52.1766 18.0381 50.9009 17.4623C49.6252 16.8864 48.2105 16.6909 46.8265 16.8991C45.4424 17.1074 44.1479 17.7106 43.0982 18.6364H40.6364C41.4824 17.5065 42.5803 16.5896 43.8428 15.9583C45.1053 15.3271 46.4976 14.9989 47.9091 15C52.93 15 57 19.07 57 24.0909C57 29.1118 52.93 33.1818 47.9091 33.1818C46.4976 33.1829 45.1053 32.8548 43.8428 32.2235C42.5803 31.5923 41.4824 30.6753 40.6364 29.5455Z" fill="#00A3FF"/>
</svg>
