<svg width="15" height="15" viewBox="0 0 15 15" fill="none" xmlns="http://www.w3.org/2000/svg">
<path d="M9.84375 0L15 2.5997V8.39734L14.0625 7.92467V3.65583L10.3125 5.54653V7.45199L9.375 7.92467V5.54653L5.625 3.65583V5.33235L4.6875 4.85968V2.5997L9.84375 0ZM9.84375 4.72674L11.1401 4.06942L7.74902 2.11226L6.20361 2.89513L9.84375 4.72674ZM12.1509 3.56721L13.4839 2.89513L9.84375 1.05613L8.75244 1.61004L12.1509 3.56721ZM8.4375 8.39734L7.5 8.87001V8.86263L4.6875 10.2807V13.6411L7.5 12.2157V13.2792L4.21875 14.9335L0 12.7991V7.8065L4.21875 5.67947L8.4375 7.8065V8.39734ZM3.75 13.6411V10.2807L0.9375 8.86263V12.2157L3.75 13.6411ZM4.21875 9.46086L6.92139 8.10192L4.21875 6.7356L1.51611 8.10192L4.21875 9.46086ZM8.4375 9.45347L11.7188 7.79911L15 9.45347V13.3456L11.7188 15L8.4375 13.3456V9.45347ZM11.25 13.7075V11.4549L9.375 10.5096V12.7622L11.25 13.7075ZM14.0625 12.7622V10.5096L12.1875 11.4549V13.7075L14.0625 12.7622ZM11.7188 10.6352L13.4839 9.74151L11.7188 8.85524L9.95361 9.74151L11.7188 10.6352Z" fill="white"/>
</svg>
