<svg width="25" height="25" viewBox="0 0 25 25" fill="none" xmlns="http://www.w3.org/2000/svg">
<path d="M1.10292 8.66482C1.811 8.66482 2.19224 8.26978 2.19224 7.5477V4.33241C2.19224 2.91558 2.95476 2.1935 4.31644 2.1935H7.61159C8.31968 2.1935 8.71457 1.79834 8.71457 1.08992C8.71457 0.395103 8.31968 0 7.61159 0H4.27554C1.44336 0 0 1.40329 0 4.20982V7.5477C0 8.26978 0.394886 8.66482 1.10292 8.66482ZM23.897 8.66482C24.6185 8.66482 25 8.26978 25 7.5477V4.20982C25 1.40329 23.5838 0 20.7243 0H17.4019C16.6802 0 16.2853 0.395103 16.2853 1.08992C16.2853 1.79834 16.6802 2.1935 17.4019 2.1935H20.6971C22.0315 2.1935 22.8076 2.91558 22.8076 4.33241V7.5477C22.8076 8.26978 23.2025 8.66482 23.897 8.66482ZM11.9144 11.3216V6.56677C11.9144 6.2398 11.6557 5.96729 11.3153 5.96729H6.57677C6.23638 5.96729 5.97761 6.2398 5.97761 6.56677V11.3216C5.97761 11.6485 6.23638 11.9074 6.57677 11.9074H11.3153C11.6557 11.9074 11.9144 11.6485 11.9144 11.3216ZM14.2701 7.1526H17.8376V10.7221H14.2701V7.1526ZM16.8028 9.68667V8.20165H15.3186V9.68667H16.8028ZM9.69495 9.68667V8.20165H8.19709V9.68667H9.69495ZM7.16227 14.2779H10.7298V17.8474H7.16227V14.2779ZM18.8452 14.7412V13.2561H17.361V14.7412H18.8452ZM14.7467 14.7412V13.2561H13.2625V14.7412H14.7467ZM9.69495 16.7983V15.3133H8.19709V16.7983H9.69495ZM16.8028 16.7983V15.3133H15.3049V16.7983H16.8028ZM17.4019 25H20.7243C23.5838 25 25 23.5831 25 20.7766V17.4524C25 16.7303 24.6051 16.3352 23.897 16.3352C23.1889 16.3352 22.8076 16.7303 22.8076 17.4524V20.6676C22.8076 22.0845 22.0315 22.8066 20.6971 22.8066H17.4019C16.6802 22.8066 16.2853 23.2017 16.2853 23.9101C16.2853 24.6049 16.6802 25 17.4019 25ZM4.27554 25H7.61159C8.31968 25 8.71457 24.6049 8.71457 23.9101C8.71457 23.2017 8.31968 22.8066 7.61159 22.8066H4.31644C2.95476 22.8066 2.19224 22.0845 2.19224 20.6676V17.4524C2.19224 16.7303 1.79735 16.3352 1.10292 16.3352C0.381233 16.3352 0 16.7303 0 17.4524V20.7766C0 23.5967 1.44336 25 4.27554 25ZM14.7467 18.8556V17.3706H13.2625V18.8556H14.7467ZM18.8452 18.8556V17.3706H17.361V18.8556H18.8452ZM19.0223 11.3216V6.56677C19.0223 6.2398 18.7635 5.96729 18.4231 5.96729H13.6845C13.3441 5.96729 13.0854 6.2398 13.0854 6.56677V11.3216C13.0854 11.6485 13.3441 11.9074 13.6845 11.9074H18.4231C18.7635 11.9074 19.0223 11.6485 19.0223 11.3216ZM7.16227 7.1526H10.7298V10.7221H7.16227V7.1526ZM11.9144 18.4332V13.6785C11.9144 13.3515 11.6557 13.0927 11.3153 13.0927H6.57677C6.23638 13.0927 5.97761 13.3515 5.97761 13.6785V18.4332C5.97761 18.7603 6.23638 19.0327 6.57677 19.0327H11.3153C11.6557 19.0327 11.9144 18.7603 11.9144 18.4332Z" fill="#9B9B9B"/>
</svg>
