<svg width="17" height="17" viewBox="0 0 17 17" fill="none" xmlns="http://www.w3.org/2000/svg">
<path d="M1 14.125C1 13.1304 1.29632 12.1766 1.82376 11.4733C2.35121 10.7701 3.06658 10.375 3.8125 10.375H9.4375C10.1834 10.375 10.8988 10.7701 11.4262 11.4733C11.9537 12.1766 12.25 13.1304 12.25 14.125C12.25 14.6223 12.1018 15.0992 11.8381 15.4508C11.5744 15.8025 11.2167 16 10.8438 16H2.40625C2.03329 16 1.6756 15.8025 1.41188 15.4508C1.14816 15.0992 1 14.6223 1 14.125Z" stroke="#323C47" stroke-width="1.5" stroke-linejoin="round"/>
<path d="M6.625 6.625C7.78998 6.625 8.73438 5.3658 8.73438 3.8125C8.73438 2.2592 7.78998 1 6.625 1C5.46002 1 4.51562 2.2592 4.51562 3.8125C4.51562 5.3658 5.46002 6.625 6.625 6.625Z" stroke="#323C47" stroke-width="1.5"/>
<path d="M6.625 11.9375C6.625 11.1087 6.87193 10.3138 7.31147 9.72779C7.75101 9.14174 8.34715 8.8125 8.96875 8.8125H13.6562C14.2779 8.8125 14.874 9.14174 15.3135 9.72779C15.7531 10.3138 16 11.1087 16 11.9375C16 12.3519 15.8765 12.7493 15.6568 13.0424C15.437 13.3354 15.1389 13.5 14.8281 13.5H7.79688C7.48607 13.5 7.188 13.3354 6.96823 13.0424C6.74847 12.7493 6.625 12.3519 6.625 11.9375Z" stroke="#323C47" stroke-width="1.5" stroke-linejoin="round"/>
<path d="M11.3125 5.6875C12.2833 5.6875 13.0703 4.63817 13.0703 3.34375C13.0703 2.04933 12.2833 1 11.3125 1C10.3417 1 9.55469 2.04933 9.55469 3.34375C9.55469 4.63817 10.3417 5.6875 11.3125 5.6875Z" stroke="#323C47" stroke-width="1.5"/>
</svg>
