<svg width="47" height="60" viewBox="0 0 47 60" fill="none" xmlns="http://www.w3.org/2000/svg">
<path d="M7.33887 45.3359H8.74512V52.5503C8.74512 53.3511 8.56689 54.0176 8.21045 54.5498C7.854 55.082 7.38037 55.4824 6.78955 55.751C6.20361 56.0146 5.56641 56.1465 4.87793 56.1465C4.15527 56.1465 3.50098 56.0146 2.91504 55.751C2.33398 55.4824 1.87256 55.082 1.53076 54.5498C1.19385 54.0176 1.02539 53.3511 1.02539 52.5503V45.3359H2.42432V52.5503C2.42432 53.1069 2.52686 53.5659 2.73193 53.9272C2.93701 54.2886 3.22266 54.5571 3.58887 54.7329C3.95996 54.9087 4.38965 54.9966 4.87793 54.9966C5.37109 54.9966 5.80078 54.9087 6.16699 54.7329C6.53809 54.5571 6.82617 54.2886 7.03125 53.9272C7.23633 53.5659 7.33887 53.1069 7.33887 52.5503V45.3359ZM12.1143 49.5986V59.0469H10.752V48.0752H11.9971L12.1143 49.5986ZM17.4536 51.9717V52.1255C17.4536 52.7017 17.3853 53.2363 17.2485 53.7295C17.1118 54.2178 16.9116 54.6426 16.6479 55.0039C16.3892 55.3652 16.0693 55.646 15.6885 55.8462C15.3076 56.0464 14.8706 56.1465 14.3774 56.1465C13.8745 56.1465 13.4302 56.0635 13.0444 55.8975C12.6587 55.7314 12.3315 55.4897 12.063 55.1724C11.7944 54.855 11.5796 54.4741 11.4185 54.0298C11.2622 53.5854 11.1548 53.085 11.0962 52.5283V51.708C11.1548 51.1221 11.2646 50.5972 11.4258 50.1333C11.5869 49.6694 11.7993 49.2739 12.063 48.9468C12.3315 48.6147 12.6562 48.3633 13.0371 48.1924C13.418 48.0166 13.8574 47.9287 14.3555 47.9287C14.8535 47.9287 15.2954 48.0264 15.6812 48.2217C16.0669 48.4121 16.3916 48.6855 16.6553 49.042C16.9189 49.3984 17.1167 49.8257 17.2485 50.3237C17.3853 50.8169 17.4536 51.3662 17.4536 51.9717ZM16.0913 52.1255V51.9717C16.0913 51.5762 16.0498 51.2051 15.9668 50.8584C15.8838 50.5068 15.7544 50.1992 15.5786 49.9355C15.4077 49.667 15.188 49.457 14.9194 49.3057C14.6509 49.1494 14.3311 49.0713 13.96 49.0713C13.6182 49.0713 13.3203 49.1299 13.0664 49.2471C12.8174 49.3643 12.605 49.5229 12.4292 49.7231C12.2534 49.9185 12.1094 50.1431 11.9971 50.397C11.8896 50.646 11.8091 50.9048 11.7554 51.1733V53.0703C11.853 53.4121 11.9897 53.7344 12.1655 54.0371C12.3413 54.335 12.5757 54.5767 12.8687 54.7622C13.1616 54.9429 13.5303 55.0332 13.9746 55.0332C14.3408 55.0332 14.6558 54.9575 14.9194 54.8062C15.188 54.6499 15.4077 54.4375 15.5786 54.1689C15.7544 53.9004 15.8838 53.5928 15.9668 53.2461C16.0498 52.8945 16.0913 52.521 16.0913 52.1255ZM20.6543 44.75V56H19.292V44.75H20.6543ZM22.4707 52.1255V51.957C22.4707 51.3857 22.5537 50.856 22.7197 50.3677C22.8857 49.8745 23.125 49.4473 23.4375 49.0859C23.75 48.7197 24.1284 48.4365 24.5728 48.2363C25.0171 48.0312 25.5151 47.9287 26.0669 47.9287C26.6235 47.9287 27.124 48.0312 27.5684 48.2363C28.0176 48.4365 28.3984 48.7197 28.7109 49.0859C29.0283 49.4473 29.27 49.8745 29.436 50.3677C29.6021 50.856 29.6851 51.3857 29.6851 51.957V52.1255C29.6851 52.6968 29.6021 53.2266 29.436 53.7148C29.27 54.2031 29.0283 54.6304 28.7109 54.9966C28.3984 55.3579 28.02 55.6411 27.5757 55.8462C27.1362 56.0464 26.6382 56.1465 26.0815 56.1465C25.5249 56.1465 25.0244 56.0464 24.5801 55.8462C24.1357 55.6411 23.7549 55.3579 23.4375 54.9966C23.125 54.6304 22.8857 54.2031 22.7197 53.7148C22.5537 53.2266 22.4707 52.6968 22.4707 52.1255ZM23.8257 51.957V52.1255C23.8257 52.521 23.8721 52.8945 23.9648 53.2461C24.0576 53.5928 24.1968 53.9004 24.3823 54.1689C24.5728 54.4375 24.8096 54.6499 25.0928 54.8062C25.376 54.9575 25.7056 55.0332 26.0815 55.0332C26.4526 55.0332 26.7773 54.9575 27.0557 54.8062C27.3389 54.6499 27.5732 54.4375 27.7588 54.1689C27.9443 53.9004 28.0835 53.5928 28.1763 53.2461C28.2739 52.8945 28.3228 52.521 28.3228 52.1255V51.957C28.3228 51.5664 28.2739 51.1978 28.1763 50.8511C28.0835 50.4995 27.9419 50.1895 27.7515 49.9209C27.5659 49.6475 27.3315 49.4326 27.0483 49.2764C26.77 49.1201 26.4429 49.042 26.0669 49.042C25.6958 49.042 25.3687 49.1201 25.0854 49.2764C24.8071 49.4326 24.5728 49.6475 24.3823 49.9209C24.1968 50.1895 24.0576 50.4995 23.9648 50.8511C23.8721 51.1978 23.8257 51.5664 23.8257 51.957ZM36.0571 54.645V50.5654C36.0571 50.2529 35.9937 49.9819 35.8667 49.7524C35.7446 49.5181 35.5591 49.3374 35.3101 49.2104C35.061 49.0835 34.7534 49.02 34.3872 49.02C34.0454 49.02 33.7451 49.0786 33.4863 49.1958C33.2324 49.313 33.0322 49.4668 32.8857 49.6572C32.7441 49.8477 32.6733 50.0527 32.6733 50.2725H31.3184C31.3184 49.9893 31.3916 49.7085 31.5381 49.4302C31.6846 49.1519 31.8945 48.9004 32.168 48.6758C32.4463 48.4463 32.7783 48.2656 33.1641 48.1338C33.5547 47.9971 33.9893 47.9287 34.4678 47.9287C35.0439 47.9287 35.5518 48.0264 35.9912 48.2217C36.4355 48.417 36.7822 48.7124 37.0312 49.1079C37.2852 49.4985 37.4121 49.9893 37.4121 50.5801V54.2715C37.4121 54.5352 37.4341 54.8159 37.478 55.1138C37.5269 55.4116 37.5977 55.668 37.6904 55.8828V56H36.2769C36.2085 55.8438 36.1548 55.6362 36.1157 55.3774C36.0767 55.1138 36.0571 54.8696 36.0571 54.645ZM36.2915 51.1953L36.3062 52.1475H34.9365C34.5508 52.1475 34.2065 52.1792 33.9038 52.2427C33.6011 52.3013 33.3472 52.3916 33.1421 52.5137C32.937 52.6357 32.7808 52.7896 32.6733 52.9751C32.5659 53.1558 32.5122 53.3682 32.5122 53.6123C32.5122 53.8613 32.5684 54.0884 32.6807 54.2935C32.793 54.4985 32.9614 54.6621 33.186 54.7842C33.4155 54.9014 33.6963 54.96 34.0283 54.96C34.4434 54.96 34.8096 54.8721 35.127 54.6963C35.4443 54.5205 35.6958 54.3057 35.8813 54.0518C36.0718 53.7979 36.1743 53.5513 36.189 53.312L36.7676 53.9639C36.7334 54.1689 36.6406 54.396 36.4893 54.645C36.3379 54.894 36.1353 55.1333 35.8813 55.3628C35.6323 55.5874 35.3345 55.7754 34.9878 55.9268C34.646 56.0732 34.2603 56.1465 33.8306 56.1465C33.2935 56.1465 32.8223 56.0415 32.417 55.8315C32.0166 55.6216 31.7041 55.3408 31.4795 54.9893C31.2598 54.6328 31.1499 54.2349 31.1499 53.7954C31.1499 53.3706 31.2329 52.9971 31.3989 52.6748C31.5649 52.3477 31.8042 52.0767 32.1167 51.8618C32.4292 51.6421 32.8052 51.4761 33.2446 51.3638C33.6841 51.2515 34.1748 51.1953 34.7168 51.1953H36.2915ZM44.5386 54.4619V44.75H45.9009V56H44.6558L44.5386 54.4619ZM39.2065 52.1255V51.9717C39.2065 51.3662 39.2798 50.8169 39.4263 50.3237C39.5776 49.8257 39.79 49.3984 40.0635 49.042C40.3418 48.6855 40.6714 48.4121 41.0522 48.2217C41.438 48.0264 41.8677 47.9287 42.3413 47.9287C42.8394 47.9287 43.2739 48.0166 43.645 48.1924C44.021 48.3633 44.3384 48.6147 44.5972 48.9468C44.8608 49.2739 45.0684 49.6694 45.2197 50.1333C45.3711 50.5972 45.4761 51.1221 45.5347 51.708V52.3818C45.481 52.9629 45.376 53.4854 45.2197 53.9492C45.0684 54.4131 44.8608 54.8086 44.5972 55.1357C44.3384 55.4629 44.021 55.7144 43.645 55.8901C43.269 56.061 42.8296 56.1465 42.3267 56.1465C41.8628 56.1465 41.438 56.0464 41.0522 55.8462C40.6714 55.646 40.3418 55.3652 40.0635 55.0039C39.79 54.6426 39.5776 54.2178 39.4263 53.7295C39.2798 53.2363 39.2065 52.7017 39.2065 52.1255ZM40.5688 51.9717V52.1255C40.5688 52.521 40.6079 52.8921 40.686 53.2388C40.769 53.5854 40.896 53.8906 41.0669 54.1543C41.2378 54.418 41.4551 54.6255 41.7188 54.7769C41.9824 54.9233 42.2974 54.9966 42.6636 54.9966C43.1128 54.9966 43.4814 54.9014 43.7695 54.7109C44.0625 54.5205 44.2969 54.269 44.4727 53.9565C44.6484 53.644 44.7852 53.3047 44.8828 52.9385V51.1733C44.8242 50.9048 44.7388 50.646 44.6265 50.397C44.519 50.1431 44.3774 49.9185 44.2017 49.7231C44.0308 49.5229 43.8184 49.3643 43.5645 49.2471C43.3154 49.1299 43.02 49.0713 42.6782 49.0713C42.3071 49.0713 41.9873 49.1494 41.7188 49.3057C41.4551 49.457 41.2378 49.667 41.0669 49.9355C40.896 50.1992 40.769 50.5068 40.686 50.8584C40.6079 51.2051 40.5688 51.5762 40.5688 51.9717Z" fill="#F22424" fill-opacity="0.5"/>
<path d="M36.1694 16.6915C35.0389 10.9559 30.0015 6.65002 23.95 6.65002C19.1454 6.65002 14.9725 9.37652 12.8944 13.3665C7.89025 13.8985 4 18.1379 4 23.275C4 28.7779 8.47213 33.25 13.975 33.25H35.5875C40.176 33.25 43.9 29.526 43.9 24.9375C43.9 20.5485 40.4919 16.9908 36.1694 16.6915ZM27.275 21.6125V28.2625H20.625V21.6125H15.6375L23.95 13.3L32.2625 21.6125H27.275Z" fill="#F22424" fill-opacity="0.5"/>
</svg>
